{"glyphs":{"0":{"ha":719,"x_min":89,"x_max":653,"o":"m 344 851 l 397 851 l 426 824 l 454 824 l 567 710 l 624 594 l 624 538 l 653 511 l 653 258 l 624 231 l 624 174 l 567 60 l 386 -53 l 260 3 l 175 88 l 118 201 l 118 258 l 89 288 l 89 538 l 175 710 l 260 794 l 289 794 l 344 851 l 344 851 m 331 767 l 260 710 l 260 681 l 232 651 l 232 594 l 203 567 l 203 315 l 289 144 l 372 60 l 400 60 l 443 32 l 483 60 l 483 88 l 511 117 l 511 174 l 539 201 l 539 482 l 511 511 l 511 567 l 483 594 l 483 624 l 331 767 l 331 767 z "},"1":{"ha":719,"x_min":133,"x_max":556,"o":"m 333 824 l 385 824 l 442 710 l 442 85 l 499 28 l 556 28 l 556 -24 l 469 -24 l 442 -53 l 360 -53 l 333 -24 l 219 -24 l 219 28 l 333 85 l 333 571 l 304 599 l 304 656 l 133 656 l 133 710 l 219 710 l 247 738 l 276 738 l 333 794 l 333 824 l 333 824 z "},"2":{"ha":719,"x_min":78,"x_max":611,"o":"m 333 824 l 385 824 l 469 738 l 499 738 l 611 624 l 611 485 l 583 457 l 583 428 l 499 344 l 469 344 l 300 258 l 160 126 l 188 114 l 501 114 l 558 171 l 558 197 l 611 197 l 611 144 l 583 117 l 583 88 l 556 60 l 556 3 l 188 3 l 131 -53 l 78 -53 l 78 85 l 133 197 l 219 283 l 247 283 l 360 397 l 389 397 l 474 482 l 474 538 l 501 567 l 501 628 l 417 713 l 385 713 l 300 628 l 272 628 l 243 599 l 133 599 l 78 656 l 78 710 l 163 710 l 190 738 l 247 738 l 333 824 l 333 824 z "},"3":{"ha":719,"x_min":78,"x_max":611,"o":"m 333 824 l 385 824 l 469 738 l 499 738 l 526 710 l 556 710 l 556 514 l 526 485 l 526 457 l 469 411 l 583 311 l 583 283 l 611 254 l 611 117 l 583 88 l 583 60 l 526 3 l 499 3 l 469 -24 l 442 -24 l 413 -53 l 247 -53 l 219 -24 l 106 32 l 106 60 l 78 88 l 78 197 l 106 226 l 106 254 l 133 283 l 188 283 l 188 231 l 160 201 l 160 171 l 243 85 l 272 85 l 431 28 l 474 85 l 474 114 l 501 142 l 501 201 l 474 231 l 474 258 l 389 344 l 360 344 l 333 372 l 219 372 l 219 425 l 304 425 l 333 454 l 360 454 l 417 511 l 417 538 l 446 567 l 446 656 l 417 685 l 417 713 l 403 740 l 300 628 l 272 628 l 243 599 l 133 599 l 78 656 l 78 710 l 163 710 l 276 767 l 333 824 l 333 824 z "},"4":{"ha":719,"x_min":89,"x_max":653,"o":"m 400 824 l 483 824 l 483 794 l 596 722 l 539 656 l 539 311 l 600 311 l 600 368 l 653 368 l 653 315 l 624 288 l 624 231 l 539 231 l 539 85 l 596 28 l 653 28 l 472 -53 l 429 -24 l 317 -24 l 344 28 l 372 28 l 429 85 l 429 231 l 171 231 l 89 174 l 89 368 l 203 482 l 317 651 l 400 824 l 400 824 m 400 738 l 400 710 l 372 681 l 260 511 l 260 482 l 175 397 l 175 368 l 146 340 l 146 288 l 199 288 l 228 315 l 426 315 l 426 628 l 454 656 l 454 738 l 400 738 l 400 738 z "},"5":{"ha":719,"x_min":78,"x_max":611,"o":"m 556 824 l 556 768 l 526 740 l 526 713 l 499 685 l 217 685 l 217 599 l 188 571 l 188 457 l 160 439 l 188 425 l 247 425 l 276 454 l 389 454 l 417 482 l 499 482 l 556 425 l 611 311 l 611 117 l 583 88 l 583 60 l 499 -24 l 469 -24 l 442 -53 l 247 -53 l 219 -24 l 190 -24 l 106 60 l 106 88 l 78 117 l 78 171 l 106 197 l 106 254 l 160 254 l 160 197 l 188 171 l 188 142 l 243 85 l 272 85 l 300 57 l 385 57 l 413 28 l 446 28 l 529 114 l 529 174 l 501 201 l 501 258 l 474 288 l 474 315 l 389 400 l 300 400 l 272 372 l 106 372 l 106 454 l 133 482 l 133 594 l 163 624 l 163 767 l 474 767 l 556 824 l 556 824 z "},"6":{"ha":719,"x_min":89,"x_max":653,"o":"m 344 824 l 397 824 l 397 794 l 454 738 l 483 738 l 511 710 l 543 710 l 571 738 l 624 738 l 624 656 l 567 599 l 457 599 l 429 628 l 400 628 l 344 685 l 344 713 l 331 740 l 256 656 l 256 628 l 228 599 l 228 542 l 199 514 l 199 368 l 232 368 l 472 482 l 511 454 l 539 454 l 596 397 l 653 283 l 653 144 l 624 117 l 624 88 l 539 3 l 511 3 l 443 -53 l 260 3 l 232 3 l 175 60 l 118 174 l 118 231 l 89 258 l 89 454 l 118 482 l 118 538 l 175 651 l 344 824 l 344 824 m 372 397 l 260 340 l 232 311 l 232 201 l 260 174 l 260 144 l 317 88 l 344 88 l 372 60 l 511 60 l 539 88 l 539 254 l 511 283 l 511 311 l 426 397 l 372 397 l 372 397 z "},"7":{"ha":719,"x_min":78,"x_max":611,"o":"m 206 824 l 243 794 l 529 794 l 558 824 l 611 824 l 611 656 l 556 542 l 499 485 l 499 457 l 413 201 l 385 174 l 385 114 l 413 69 l 356 3 l 329 3 l 247 -53 l 247 114 l 276 142 l 276 226 l 304 254 l 304 311 l 389 482 l 501 594 l 501 624 l 558 667 l 529 685 l 188 685 l 131 571 l 78 571 l 206 824 l 206 824 z "},"8":{"ha":719,"x_min":78,"x_max":611,"o":"m 304 824 l 385 824 l 499 767 l 583 681 l 583 571 l 556 542 l 556 514 l 469 428 l 469 397 l 526 397 l 583 340 l 583 311 l 611 283 l 611 144 l 583 117 l 583 88 l 526 32 l 499 32 l 469 3 l 442 3 l 374 -53 l 190 3 l 163 3 l 106 60 l 106 88 l 78 117 l 78 254 l 106 283 l 106 311 l 190 382 l 133 428 l 133 457 l 106 485 l 106 651 l 133 681 l 133 710 l 190 767 l 304 824 l 304 824 m 219 368 l 163 311 l 163 174 l 190 144 l 190 117 l 219 88 l 247 88 l 276 60 l 360 60 l 403 32 l 469 88 l 499 88 l 499 117 l 526 144 l 526 226 l 442 311 l 272 368 l 219 368 l 219 368 m 263 738 l 190 681 l 190 542 l 247 485 l 276 485 l 304 457 l 442 457 l 499 514 l 499 594 l 469 624 l 469 651 l 442 681 l 413 681 l 385 710 l 300 710 l 263 738 l 263 738 z "},"9":{"ha":719,"x_min":89,"x_max":653,"o":"m 344 824 l 397 824 l 426 794 l 454 794 l 567 681 l 624 567 l 624 511 l 653 482 l 653 288 l 624 258 l 624 201 l 567 88 l 426 -53 l 289 -53 l 175 3 l 118 126 l 171 171 l 171 114 l 228 114 l 285 57 l 371 57 l 397 28 l 400 28 l 486 114 l 486 142 l 514 171 l 514 226 l 543 254 l 543 372 l 529 400 l 511 372 l 483 372 l 426 315 l 371 315 l 342 288 l 314 288 l 285 258 l 203 258 l 118 344 l 118 372 l 89 400 l 89 567 l 146 681 l 232 767 l 344 824 l 344 824 m 303 738 l 203 651 l 203 624 l 175 594 l 175 485 l 203 457 l 203 428 l 303 344 l 539 468 l 483 594 l 397 681 l 371 681 l 303 738 l 303 738 z "}," ":{"ha":533,"x_min":0,"x_max":0,"o":""}," ":{"ha":533,"x_min":0,"x_max":0,"o":""},"!":{"ha":719,"x_min":203,"x_max":539,"o":"m 344 171 l 397 171 l 483 85 l 539 85 l 539 32 l 511 32 l 454 -24 l 426 -24 l 397 -53 l 344 -53 l 260 32 l 203 32 l 203 85 l 232 85 l 289 142 l 317 142 l 344 171 l 344 171 m 344 851 l 397 851 l 483 767 l 539 767 l 539 713 l 511 713 l 454 656 l 454 599 l 426 571 l 426 457 l 397 428 l 397 258 l 344 258 l 344 428 l 317 457 l 317 571 l 289 599 l 289 656 l 232 713 l 203 713 l 203 767 l 232 767 l 289 824 l 317 824 l 344 851 l 344 851 z "},"\"":{"ha":719,"x_min":50,"x_max":640,"o":"m 133 907 l 217 907 l 272 851 l 300 851 l 300 797 l 243 797 l 243 740 l 217 713 l 217 485 l 188 485 l 133 457 l 133 713 l 106 740 l 106 797 l 50 797 l 50 851 l 78 851 l 133 907 l 133 907 m 474 907 l 556 907 l 611 851 l 640 851 l 640 797 l 583 797 l 583 740 l 556 713 l 556 485 l 526 485 l 474 457 l 474 713 l 446 740 l 446 797 l 389 797 l 389 851 l 417 851 l 474 907 l 474 907 z "},"#":{"ha":719,"x_min":89,"x_max":653,"o":"m 344 879 l 397 879 l 397 768 l 342 553 l 371 538 l 372 538 l 400 567 l 486 567 l 486 651 l 543 879 l 596 879 l 596 768 l 567 740 l 567 656 l 539 628 l 539 567 l 571 567 l 600 594 l 653 594 l 653 542 l 596 485 l 511 485 l 511 400 l 483 372 l 483 283 l 543 283 l 571 311 l 624 311 l 624 258 l 567 201 l 454 201 l 454 60 l 397 -167 l 344 -167 l 400 85 l 400 201 l 371 201 l 342 174 l 285 174 l 199 -167 l 146 -167 l 146 -57 l 203 156 l 175 174 l 143 174 l 143 117 l 89 117 l 89 197 l 118 226 l 118 254 l 232 254 l 232 368 l 260 397 l 260 457 l 171 457 l 171 400 l 118 400 l 118 482 l 175 538 l 260 538 l 344 879 l 344 879 m 400 482 l 372 454 l 317 454 l 317 397 l 289 368 l 289 258 l 342 258 l 371 288 l 426 288 l 426 372 l 454 400 l 454 482 l 400 482 l 400 482 z "},"$":{"ha":719,"x_min":78,"x_max":611,"o":"m 446 1050 l 499 1050 l 499 940 l 469 911 l 469 794 l 529 794 l 558 824 l 611 824 l 611 768 l 526 685 l 413 685 l 413 599 l 385 571 l 385 485 l 356 468 l 413 425 l 469 425 l 499 397 l 526 397 l 611 311 l 611 174 l 385 -53 l 333 -53 l 333 3 l 243 3 l 243 -81 l 217 -110 l 217 -194 l 163 -194 l 163 -85 l 190 -57 l 190 3 l 160 3 l 78 -53 l 78 28 l 106 57 l 106 85 l 133 85 l 163 114 l 190 114 l 247 171 l 247 254 l 276 283 l 276 344 l 163 400 l 78 485 l 78 594 l 133 710 l 247 824 l 276 824 l 304 851 l 356 851 l 403 794 l 417 824 l 417 936 l 446 964 l 446 1050 l 446 1050 m 333 340 l 333 283 l 304 254 l 304 171 l 276 117 l 304 117 l 360 60 l 413 60 l 499 144 l 499 283 l 469 311 l 413 311 l 385 340 l 333 340 l 333 340 m 247 738 l 219 710 l 219 681 l 163 624 l 163 542 l 219 485 l 247 485 l 290 457 l 329 485 l 329 571 l 356 599 l 356 710 l 329 738 l 247 738 l 247 738 z "},"%":{"ha":719,"x_min":50,"x_max":640,"o":"m 586 879 l 640 879 l 640 826 l 611 797 l 611 768 l 556 713 l 556 685 l 526 656 l 526 628 l 469 571 l 469 542 l 413 428 l 356 372 l 356 344 l 300 231 l 243 174 l 243 144 l 188 32 l 131 -14 l 160 -28 l 188 -28 l 131 -110 l 50 -110 l 50 -57 l 78 -28 l 78 0 l 133 57 l 133 85 l 190 197 l 247 254 l 247 283 l 304 397 l 360 454 l 360 482 l 417 594 l 474 651 l 529 751 l 501 768 l 469 768 l 442 740 l 329 740 l 300 722 l 329 710 l 329 542 l 300 514 l 300 485 l 243 428 l 163 428 l 106 485 l 106 514 l 78 542 l 78 710 l 106 738 l 106 767 l 163 824 l 272 824 l 300 794 l 417 794 l 446 824 l 529 824 l 586 879 l 586 879 m 206 767 l 163 738 l 163 710 l 133 681 l 133 571 l 163 542 l 163 514 l 206 485 l 243 514 l 243 542 l 272 571 l 272 681 l 243 710 l 243 738 l 206 767 l 206 767 m 446 340 l 526 340 l 583 283 l 583 254 l 611 226 l 611 60 l 583 32 l 583 3 l 526 -53 l 446 -53 l 389 3 l 389 32 l 360 60 l 360 226 l 389 254 l 389 283 l 446 340 l 446 340 m 488 283 l 446 254 l 446 226 l 417 197 l 417 88 l 446 60 l 446 32 l 488 3 l 526 32 l 526 60 l 556 88 l 556 197 l 526 226 l 526 254 l 488 283 l 488 283 z "},"&":{"ha":719,"x_min":78,"x_max":611,"o":"m 333 851 l 385 851 l 413 824 l 442 824 l 469 794 l 558 794 l 558 851 l 611 851 l 611 768 l 556 713 l 389 713 l 346 768 l 243 656 l 243 651 l 329 567 l 329 538 l 356 511 l 356 454 l 385 425 l 385 397 l 413 368 l 469 197 l 474 197 l 529 254 l 529 315 l 446 425 l 556 425 l 611 368 l 611 258 l 583 231 l 583 201 l 499 126 l 556 85 l 611 85 l 611 32 l 556 -24 l 556 -53 l 501 -53 l 501 -24 l 417 60 l 413 60 l 329 -24 l 329 -53 l 219 -53 l 190 -24 l 163 -24 l 106 32 l 106 60 l 78 88 l 78 254 l 133 368 l 190 425 l 247 425 l 247 485 l 163 571 l 163 599 l 133 628 l 133 681 l 163 710 l 190 710 l 333 851 l 333 851 m 247 397 l 219 368 l 219 340 l 163 283 l 163 144 l 190 117 l 190 88 l 219 60 l 329 60 l 385 117 l 385 171 l 329 340 l 300 368 l 300 397 l 247 397 l 247 397 z "},"'":{"ha":719,"x_min":219,"x_max":469,"o":"m 304 907 l 385 907 l 442 851 l 469 851 l 469 797 l 413 740 l 413 713 l 385 685 l 385 428 l 356 428 l 304 400 l 304 685 l 276 713 l 276 740 l 219 797 l 219 851 l 247 851 l 304 907 l 304 907 z "},"(":{"ha":719,"x_min":203,"x_max":539,"o":"m 486 964 l 539 964 l 539 911 l 426 797 l 426 768 l 397 740 l 397 713 l 342 542 l 314 514 l 314 226 l 342 197 l 342 142 l 397 28 l 539 -114 l 539 -167 l 400 -167 l 317 -81 l 232 88 l 232 144 l 203 174 l 203 511 l 260 681 l 317 794 l 486 964 l 486 964 z "},")":{"ha":719,"x_min":203,"x_max":539,"o":"m 203 964 l 342 964 l 426 879 l 511 710 l 511 651 l 539 624 l 539 288 l 483 117 l 426 3 l 256 -167 l 203 -167 l 203 -114 l 317 0 l 372 114 l 429 283 l 429 571 l 400 599 l 400 656 l 344 768 l 203 911 l 203 964 l 203 964 z "},"*":{"ha":719,"x_min":78,"x_max":611,"o":"m 333 907 l 413 907 l 413 854 l 385 826 l 385 797 l 356 768 l 356 710 l 374 681 l 544 767 l 583 738 l 583 710 l 611 681 l 611 599 l 558 599 l 403 656 l 356 610 l 499 482 l 556 482 l 556 428 l 499 428 l 469 400 l 417 400 l 389 428 l 333 542 l 329 542 l 272 485 l 272 372 l 219 372 l 163 428 l 133 428 l 133 482 l 190 538 l 219 538 l 304 610 l 276 628 l 131 628 l 78 599 l 78 767 l 131 767 l 290 681 l 304 710 l 304 740 l 276 768 l 276 826 l 219 826 l 219 879 l 304 879 l 333 907 l 333 907 z "},"+":{"ha":719,"x_min":21,"x_max":668,"o":"m 304 767 l 356 767 l 385 738 l 385 482 l 586 482 l 615 511 l 668 511 l 668 457 l 640 428 l 640 400 l 385 400 l 385 197 l 413 171 l 413 117 l 374 88 l 304 144 l 304 400 l 103 400 l 74 372 l 21 372 l 21 425 l 50 454 l 50 482 l 304 482 l 304 767 l 304 767 z "},",":{"ha":719,"x_min":232,"x_max":511,"o":"m 372 171 l 426 171 l 483 114 l 483 85 l 511 57 l 511 -53 l 454 -167 l 342 -281 l 289 -281 l 289 -226 l 372 -142 l 372 -114 l 400 -85 l 400 -53 l 317 32 l 232 32 l 232 85 l 260 85 l 317 142 l 344 142 l 372 171 l 372 171 z "},"-":{"ha":719,"x_min":106,"x_max":583,"o":"m 133 511 l 583 511 l 583 457 l 556 428 l 556 400 l 106 400 l 106 454 l 133 482 l 133 511 l 133 511 z "},".":{"ha":719,"x_min":163,"x_max":526,"o":"m 304 226 l 356 226 l 469 114 l 526 114 l 526 60 l 499 60 l 385 -53 l 333 -53 l 219 60 l 163 60 l 163 114 l 190 114 l 304 226 l 304 226 z "},"/":{"ha":719,"x_min":106,"x_max":583,"o":"m 417 993 l 583 993 l 583 940 l 556 911 l 556 883 l 243 -53 l 217 -81 l 217 -85 l 272 -167 l 106 -167 l 106 -114 l 133 -85 l 474 922 l 417 993 l 417 993 z "},":":{"ha":719,"x_min":203,"x_max":539,"o":"m 344 171 l 397 171 l 483 85 l 539 85 l 539 32 l 511 32 l 454 -24 l 426 -24 l 397 -53 l 344 -53 l 260 32 l 203 32 l 203 85 l 232 85 l 289 142 l 317 142 l 344 171 l 344 171 m 344 624 l 397 624 l 483 538 l 539 538 l 539 485 l 511 485 l 454 428 l 426 428 l 397 400 l 344 400 l 260 485 l 203 485 l 203 538 l 232 538 l 289 594 l 317 594 l 344 624 l 344 624 z "},";":{"ha":719,"x_min":203,"x_max":539,"o":"m 372 171 l 426 171 l 483 114 l 483 85 l 511 57 l 511 -53 l 454 -167 l 342 -281 l 289 -281 l 289 -226 l 372 -142 l 372 -114 l 400 -85 l 400 -53 l 317 32 l 232 32 l 232 85 l 260 85 l 317 142 l 344 142 l 372 171 l 372 171 m 344 624 l 397 624 l 483 538 l 539 538 l 539 485 l 511 485 l 454 428 l 426 428 l 397 400 l 344 400 l 260 485 l 203 485 l 203 538 l 232 538 l 289 594 l 317 594 l 344 624 l 344 624 z "},"<":{"ha":719,"x_min":92,"x_max":597,"o":"m 517 767 l 569 767 l 569 685 l 540 656 l 540 628 l 400 485 l 371 485 l 258 382 l 371 283 l 400 283 l 483 197 l 483 171 l 597 42 l 569 3 l 540 3 l 501 -24 l 431 32 l 431 60 l 206 288 l 92 344 l 92 397 l 119 397 l 233 454 l 517 738 l 517 767 l 517 767 z "},"=":{"ha":719,"x_min":50,"x_max":640,"o":"m 78 340 l 640 340 l 611 288 l 611 258 l 50 258 l 78 311 l 78 340 l 78 340 m 78 594 l 640 594 l 611 542 l 611 514 l 50 514 l 78 567 l 78 594 l 78 594 z "},">":{"ha":719,"x_min":133,"x_max":610,"o":"m 189 767 l 243 767 l 243 738 l 271 710 l 271 681 l 382 567 l 411 567 l 525 454 l 582 454 l 610 400 l 582 400 l 553 372 l 525 372 l 439 288 l 411 288 l 214 88 l 214 60 l 186 32 l 186 3 l 133 -24 l 133 85 l 161 114 l 161 142 l 331 311 l 360 311 l 443 382 l 386 428 l 360 428 l 331 457 l 303 457 l 189 571 l 189 599 l 133 656 l 133 710 l 189 767 l 189 767 z "},"?":{"ha":719,"x_min":92,"x_max":597,"o":"m 318 171 l 371 171 l 456 85 l 513 85 l 513 32 l 483 32 l 428 -24 l 400 -24 l 371 -53 l 318 -53 l 233 32 l 176 32 l 176 85 l 206 85 l 263 142 l 290 142 l 318 171 l 318 171 m 290 879 l 344 879 l 569 767 l 597 738 l 597 571 l 540 457 l 371 344 l 344 326 l 371 311 l 371 258 l 290 258 l 290 288 l 263 315 l 263 368 l 431 482 l 488 594 l 488 713 l 431 768 l 403 768 l 374 797 l 371 797 l 288 713 l 258 713 l 229 685 l 119 685 l 92 713 l 92 767 l 119 767 l 149 794 l 176 794 l 233 851 l 263 851 l 290 879 l 290 879 z "},"@":{"ha":719,"x_min":78,"x_max":611,"o":"m 333 851 l 385 851 l 469 767 l 499 767 l 611 710 l 611 656 l 583 628 l 583 283 l 611 254 l 611 201 l 574 174 l 501 231 l 499 231 l 442 174 l 389 174 l 360 201 l 333 201 l 276 269 l 304 311 l 304 428 l 276 468 l 333 538 l 360 538 l 389 567 l 442 567 l 488 511 l 501 538 l 501 656 l 446 713 l 417 713 l 360 768 l 329 768 l 300 740 l 272 740 l 217 685 l 217 656 l 188 628 l 188 571 l 160 542 l 160 254 l 188 226 l 188 171 l 217 142 l 217 114 l 300 28 l 329 28 l 356 0 l 389 0 l 417 28 l 529 85 l 611 85 l 611 32 l 556 32 l 442 -24 l 413 -53 l 304 -53 l 276 -24 l 247 -24 l 133 88 l 133 117 l 106 144 l 106 201 l 78 231 l 78 538 l 106 567 l 106 624 l 163 738 l 219 794 l 333 851 l 333 851 m 389 482 l 360 454 l 360 288 l 389 258 l 469 258 l 499 288 l 499 425 l 442 482 l 389 482 l 389 482 z "},"A":{"ha":719,"x_min":21,"x_max":668,"o":"m 219 851 l 356 851 l 385 824 l 413 824 l 469 710 l 469 624 l 499 594 l 499 482 l 526 454 l 611 114 l 611 57 l 668 57 l 668 3 l 640 3 l 574 -53 l 529 -24 l 529 3 l 501 32 l 501 88 l 474 117 l 474 201 l 417 258 l 217 258 l 217 201 l 188 174 l 188 114 l 276 114 l 329 142 l 329 88 l 300 60 l 300 32 l 272 3 l 131 3 l 74 -53 l 21 -53 l 21 28 l 50 57 l 50 85 l 78 114 l 133 114 l 133 197 l 163 226 l 163 311 l 190 340 l 190 400 l 131 400 l 50 344 l 50 425 l 106 482 l 219 482 l 219 538 l 276 751 l 247 768 l 243 768 l 188 713 l 188 685 l 133 685 l 133 767 l 163 794 l 163 824 l 190 824 l 219 851 l 219 851 m 356 710 l 333 710 l 333 681 l 276 454 l 247 425 l 247 344 l 413 344 l 413 454 l 385 482 l 385 594 l 356 624 l 356 710 l 356 710 z "},"B":{"ha":719,"x_min":61,"x_max":681,"o":"m 344 851 l 426 851 l 539 794 l 596 738 l 596 710 l 624 681 l 624 599 l 596 571 l 596 542 l 483 439 l 596 397 l 653 340 l 653 311 l 681 283 l 681 174 l 653 144 l 653 117 l 539 3 l 199 3 l 143 -53 l 89 -53 l 89 28 l 118 57 l 118 85 l 175 85 l 175 344 l 161 372 l 89 315 l 89 425 l 118 454 l 175 454 l 175 624 l 260 694 l 232 713 l 143 713 l 61 656 l 61 738 l 118 794 l 146 794 l 175 824 l 317 824 l 344 851 l 344 851 m 317 368 l 289 340 l 289 197 l 260 171 l 260 117 l 567 117 l 596 144 l 596 197 l 567 226 l 567 254 l 483 340 l 454 340 l 426 368 l 317 368 l 317 368 m 344 738 l 289 681 l 289 400 l 342 428 l 511 542 l 511 651 l 426 738 l 344 738 l 344 738 z "},"C":{"ha":719,"x_min":61,"x_max":681,"o":"m 400 851 l 454 851 l 483 824 l 483 794 l 567 710 l 600 710 l 628 738 l 681 738 l 681 656 l 624 599 l 514 599 l 429 685 l 429 740 l 397 740 l 342 685 l 342 372 l 199 231 l 199 226 l 228 197 l 228 171 l 314 85 l 342 85 l 371 57 l 486 57 l 514 85 l 543 85 l 600 142 l 653 142 l 539 3 l 539 -24 l 511 -53 l 317 -53 l 203 3 l 146 60 l 89 174 l 89 231 l 61 258 l 61 538 l 89 567 l 89 624 l 146 738 l 232 824 l 285 824 l 228 740 l 228 713 l 199 685 l 199 656 l 171 628 l 171 311 l 189 283 l 260 368 l 260 599 l 232 639 l 400 824 l 400 851 l 400 851 z "},"D":{"ha":719,"x_min":35,"x_max":654,"o":"m 318 851 l 428 851 l 456 824 l 483 824 l 569 738 l 626 624 l 626 567 l 654 538 l 654 288 l 597 174 l 456 32 l 456 3 l 172 3 l 115 -53 l 63 -53 l 63 28 l 92 57 l 92 85 l 149 85 l 149 315 l 133 344 l 63 288 l 63 397 l 92 425 l 149 425 l 149 571 l 92 571 l 206 694 l 176 713 l 144 713 l 88 656 l 35 656 l 35 738 l 92 794 l 119 794 l 149 824 l 229 824 l 258 794 l 263 794 l 318 851 l 318 851 m 290 738 l 263 710 l 263 226 l 233 197 l 233 171 l 206 117 l 456 117 l 513 174 l 513 201 l 540 231 l 540 511 l 513 538 l 513 594 l 483 624 l 483 651 l 428 710 l 400 710 l 371 738 l 290 738 l 290 738 z "},"E":{"ha":719,"x_min":21,"x_max":668,"o":"m 304 851 l 413 851 l 442 824 l 586 824 l 615 851 l 668 851 l 668 797 l 640 768 l 640 740 l 611 740 l 583 713 l 417 713 l 389 740 l 333 740 l 318 768 l 272 713 l 272 454 l 474 454 l 501 482 l 556 482 l 556 428 l 469 344 l 333 344 l 304 372 l 272 372 l 272 201 l 243 174 l 243 144 l 217 126 l 243 114 l 558 114 l 615 171 l 668 171 l 668 117 l 640 88 l 640 60 l 611 32 l 583 32 l 556 3 l 160 3 l 103 -53 l 50 -53 l 106 85 l 163 85 l 163 344 l 149 372 l 103 315 l 103 288 l 50 288 l 50 368 l 106 425 l 163 425 l 163 599 l 133 639 l 190 694 l 163 713 l 131 713 l 74 656 l 21 656 l 78 794 l 106 794 l 133 824 l 217 824 l 243 794 l 247 794 l 304 851 l 304 851 z "},"F":{"ha":719,"x_min":61,"x_max":681,"o":"m 372 851 l 454 851 l 483 824 l 600 824 l 628 851 l 681 851 l 681 768 l 624 713 l 429 713 l 400 740 l 371 740 l 314 685 l 314 454 l 486 454 l 514 482 l 567 482 l 567 428 l 483 344 l 372 344 l 344 372 l 314 372 l 314 144 l 256 88 l 256 60 l 199 3 l 143 3 l 61 -53 l 61 28 l 89 57 l 89 85 l 203 142 l 203 315 l 189 344 l 118 288 l 118 368 l 203 454 l 203 651 l 260 694 l 232 713 l 199 713 l 143 656 l 89 656 l 146 794 l 175 794 l 203 824 l 314 824 l 331 794 l 372 851 l 372 851 z "},"G":{"ha":719,"x_min":21,"x_max":668,"o":"m 333 851 l 385 851 l 413 824 l 413 794 l 469 738 l 499 738 l 526 710 l 558 710 l 586 738 l 640 738 l 640 685 l 611 656 l 611 628 l 583 628 l 556 599 l 446 599 l 346 713 l 329 685 l 329 400 l 160 231 l 160 197 l 300 57 l 446 57 l 501 114 l 501 258 l 460 315 l 333 258 l 333 311 l 360 311 l 668 454 l 668 400 l 640 400 l 611 372 l 583 372 l 556 354 l 583 340 l 583 311 l 611 283 l 611 144 l 583 117 l 583 88 l 469 -24 l 469 -53 l 276 -53 l 163 3 l 106 60 l 50 174 l 50 231 l 21 258 l 21 538 l 50 567 l 50 624 l 106 738 l 190 824 l 243 824 l 188 740 l 188 713 l 160 685 l 160 656 l 131 628 l 131 311 l 149 283 l 219 368 l 219 628 l 190 667 l 333 824 l 333 851 l 333 851 z "},"H":{"ha":719,"x_min":32,"x_max":710,"o":"m 289 851 l 342 851 l 342 768 l 256 685 l 256 454 l 486 454 l 486 710 l 514 738 l 514 794 l 543 824 l 543 851 l 596 851 l 653 794 l 710 794 l 710 740 l 624 740 l 624 685 l 596 656 l 596 171 l 624 142 l 624 85 l 710 85 l 710 32 l 653 32 l 596 -24 l 543 -24 l 543 3 l 514 32 l 514 88 l 486 117 l 486 400 l 256 400 l 256 201 l 228 174 l 228 144 l 199 126 l 228 114 l 317 114 l 371 142 l 371 88 l 342 60 l 342 32 l 314 3 l 143 3 l 86 -53 l 32 -53 l 32 0 l 61 28 l 61 57 l 146 142 l 146 344 l 133 372 l 115 344 l 115 315 l 61 315 l 61 397 l 146 482 l 146 624 l 175 651 l 175 681 l 203 694 l 175 713 l 143 713 l 86 656 l 32 656 l 89 794 l 118 794 l 146 824 l 260 824 l 289 851 l 289 851 z "},"I":{"ha":719,"x_min":78,"x_max":611,"o":"m 558 851 l 611 851 l 611 797 l 583 768 l 583 740 l 556 713 l 526 713 l 499 685 l 413 685 l 413 628 l 385 599 l 385 231 l 356 201 l 356 144 l 329 126 l 356 114 l 501 114 l 558 171 l 611 171 l 611 117 l 583 88 l 583 60 l 556 32 l 526 32 l 499 3 l 188 3 l 131 -53 l 78 -53 l 133 85 l 247 142 l 247 171 l 276 197 l 276 567 l 304 594 l 304 651 l 333 667 l 304 685 l 188 685 l 131 628 l 78 628 l 133 767 l 163 767 l 190 794 l 501 794 l 558 851 l 558 851 z "},"J":{"ha":719,"x_min":35,"x_max":654,"o":"m 574 851 l 654 851 l 654 797 l 569 713 l 569 685 l 540 656 l 540 226 l 597 156 l 569 117 l 540 117 l 371 -53 l 206 -53 l 176 -24 l 149 -24 l 63 60 l 63 88 l 35 117 l 35 254 l 92 311 l 144 311 l 88 231 l 88 226 l 115 197 l 115 171 l 201 85 l 229 85 l 258 57 l 315 57 l 344 28 l 346 28 l 431 114 l 431 624 l 460 651 l 460 681 l 488 694 l 460 713 l 288 713 l 229 656 l 176 656 l 233 794 l 263 794 l 290 824 l 544 824 l 574 851 l 574 851 z "},"K":{"ha":719,"x_min":32,"x_max":710,"o":"m 317 851 l 371 851 l 371 797 l 342 768 l 342 740 l 314 713 l 256 713 l 256 425 l 289 425 l 317 454 l 344 454 l 429 538 l 429 567 l 486 681 l 543 851 l 710 851 l 710 797 l 653 740 l 596 740 l 483 514 l 426 457 l 426 454 l 511 368 l 511 340 l 567 171 l 624 114 l 624 57 l 710 57 l 710 3 l 681 3 l 624 -53 l 571 -53 l 514 3 l 429 174 l 429 231 l 400 258 l 400 288 l 317 372 l 256 372 l 256 231 l 228 201 l 228 114 l 289 114 l 342 142 l 342 88 l 314 60 l 314 32 l 285 3 l 143 3 l 86 -53 l 32 -53 l 32 28 l 61 57 l 61 85 l 89 85 l 146 142 l 146 315 l 133 344 l 115 315 l 115 288 l 61 288 l 61 368 l 146 454 l 146 594 l 175 624 l 175 713 l 115 713 l 32 656 l 32 738 l 61 767 l 61 794 l 89 794 l 118 824 l 289 824 l 317 851 l 317 851 z "},"L":{"ha":719,"x_min":61,"x_max":681,"o":"m 344 851 l 426 851 l 454 824 l 543 824 l 571 851 l 624 851 l 624 797 l 596 768 l 596 740 l 567 740 l 539 713 l 400 713 l 372 740 l 342 740 l 285 685 l 285 174 l 256 144 l 256 114 l 514 114 l 600 197 l 600 226 l 628 254 l 681 254 l 567 3 l 199 3 l 61 -53 l 61 0 l 89 28 l 89 57 l 118 57 l 175 114 l 175 344 l 161 372 l 143 344 l 143 315 l 89 315 l 89 397 l 175 482 l 175 710 l 203 738 l 232 738 l 344 851 l 344 851 z "},"M":{"ha":719,"x_min":-8,"x_max":697,"o":"m 219 851 l 272 851 l 300 824 l 346 710 l 417 794 l 417 824 l 446 851 l 499 851 l 640 710 l 668 710 l 697 656 l 640 656 l 640 57 l 697 57 l 697 3 l 640 -53 l 586 -53 l 558 -24 l 558 3 l 529 32 l 529 628 l 446 713 l 385 713 l 385 57 l 442 57 l 442 3 l 374 -53 l 333 -24 l 333 3 l 304 32 l 304 599 l 247 656 l 247 713 l 217 713 l 160 656 l 160 85 l 217 14 l 160 -53 l 106 -53 l -8 14 l 50 85 l 50 344 l 35 372 l 17 344 l 17 315 l -8 315 l -8 425 l 50 482 l 50 624 l 106 681 l 106 713 l 46 713 l 46 656 l -8 656 l -8 767 l 50 824 l 131 824 l 131 767 l 190 767 l 190 824 l 219 851 l 219 851 z "},"N":{"ha":719,"x_min":21,"x_max":668,"o":"m 78 851 l 160 851 l 188 824 l 488 197 l 501 226 l 501 713 l 442 713 l 403 694 l 446 824 l 586 824 l 615 851 l 668 851 l 668 797 l 640 768 l 640 740 l 611 713 l 556 713 l 556 57 l 574 28 l 586 57 l 668 57 l 574 -53 l 446 3 l 176 571 l 160 542 l 160 114 l 219 114 l 272 142 l 272 88 l 243 60 l 243 32 l 217 3 l 131 3 l 74 -53 l 21 -53 l 21 28 l 50 57 l 50 85 l 106 142 l 106 344 l 92 372 l 74 344 l 74 315 l 21 315 l 21 425 l 50 454 l 106 454 l 106 713 l 21 713 l 21 794 l 78 851 l 78 851 z "},"O":{"ha":719,"x_min":35,"x_max":654,"o":"m 374 879 l 428 879 l 456 851 l 483 851 l 569 767 l 626 651 l 626 594 l 654 567 l 654 258 l 626 231 l 626 174 l 569 60 l 483 -24 l 483 -53 l 318 -53 l 290 -24 l 233 -24 l 206 3 l 176 3 l 119 60 l 63 174 l 63 231 l 35 258 l 35 538 l 63 567 l 63 624 l 119 738 l 233 851 l 288 851 l 201 740 l 201 713 l 172 685 l 172 656 l 144 628 l 144 226 l 163 197 l 263 311 l 263 656 l 233 694 l 374 851 l 374 879 l 374 879 m 346 767 l 346 340 l 206 197 l 206 144 l 263 88 l 290 88 l 318 60 l 483 60 l 513 88 l 513 117 l 540 144 l 540 231 l 569 258 l 569 425 l 540 454 l 540 538 l 513 567 l 513 624 l 483 651 l 483 681 l 400 767 l 346 767 l 346 767 z "},"P":{"ha":719,"x_min":61,"x_max":681,"o":"m 372 851 l 454 851 l 567 794 l 653 710 l 653 681 l 681 651 l 681 514 l 653 485 l 653 457 l 567 372 l 539 372 l 511 344 l 372 344 l 344 372 l 314 372 l 314 174 l 285 144 l 285 114 l 372 114 l 429 171 l 483 171 l 483 117 l 454 88 l 454 60 l 397 3 l 171 3 l 115 -53 l 61 -53 l 118 85 l 146 85 l 203 142 l 203 315 l 189 344 l 171 315 l 171 288 l 118 288 l 118 368 l 203 454 l 203 651 l 260 694 l 232 713 l 171 713 l 115 656 l 61 656 l 61 738 l 118 794 l 146 794 l 175 824 l 344 824 l 372 851 l 372 851 m 344 738 l 317 710 l 317 457 l 397 514 l 400 514 l 429 496 l 372 428 l 539 428 l 596 485 l 596 567 l 567 594 l 567 624 l 483 710 l 454 710 l 426 738 l 344 738 l 344 738 z "},"Q":{"ha":719,"x_min":21,"x_max":668,"o":"m 389 879 l 442 879 l 442 851 l 556 738 l 611 624 l 611 567 l 640 538 l 640 258 l 583 144 l 556 117 l 556 28 l 583 0 l 583 -114 l 668 -114 l 668 -167 l 640 -167 l 583 -224 l 529 -224 l 501 -194 l 501 -167 l 474 -137 l 474 -53 l 446 -24 l 446 3 l 431 32 l 413 3 l 413 -53 l 304 -53 l 276 -24 l 219 -24 l 190 3 l 163 3 l 106 60 l 50 174 l 50 231 l 21 258 l 21 538 l 50 567 l 50 624 l 106 738 l 219 851 l 272 851 l 188 740 l 188 713 l 160 685 l 160 628 l 131 599 l 131 226 l 149 197 l 247 311 l 247 656 l 219 694 l 389 879 l 389 879 m 333 767 l 333 340 l 190 197 l 190 144 l 247 88 l 276 88 l 304 60 l 413 60 l 442 99 l 374 171 l 333 142 l 300 142 l 300 201 l 356 201 l 385 231 l 385 288 l 417 288 l 501 201 l 501 174 l 526 174 l 526 231 l 556 258 l 556 454 l 526 482 l 526 538 l 442 710 l 385 767 l 333 767 l 333 767 z "},"R":{"ha":719,"x_min":21,"x_max":668,"o":"m 333 851 l 385 851 l 499 794 l 583 710 l 583 681 l 611 651 l 611 514 l 583 485 l 583 457 l 526 400 l 469 400 l 469 368 l 556 283 l 556 226 l 583 197 l 583 142 l 640 85 l 668 85 l 668 32 l 640 32 l 583 -24 l 529 -24 l 474 88 l 474 144 l 446 174 l 389 288 l 360 288 l 333 315 l 243 315 l 243 201 l 217 174 l 217 144 l 188 126 l 217 114 l 276 114 l 304 142 l 356 142 l 356 88 l 329 60 l 329 32 l 300 3 l 131 3 l 74 -53 l 21 -53 l 21 28 l 50 57 l 50 85 l 78 85 l 133 142 l 133 315 l 119 344 l 103 315 l 103 288 l 50 288 l 50 368 l 133 454 l 133 624 l 190 681 l 190 713 l 131 713 l 74 656 l 21 656 l 21 738 l 78 794 l 106 794 l 133 824 l 272 824 l 290 794 l 333 851 l 333 851 m 318 738 l 247 681 l 247 372 l 329 372 l 356 400 l 385 400 l 413 428 l 442 428 l 499 485 l 499 624 l 469 651 l 469 681 l 442 681 l 413 710 l 356 710 l 318 738 l 318 738 z "},"S":{"ha":719,"x_min":35,"x_max":654,"o":"m 290 851 l 344 851 l 428 767 l 517 767 l 601 851 l 654 851 l 654 797 l 626 768 l 626 740 l 569 685 l 540 685 l 513 656 l 374 656 l 346 685 l 318 685 l 276 740 l 172 628 l 172 594 l 258 511 l 288 511 l 315 482 l 403 482 l 517 594 l 544 594 l 574 624 l 654 624 l 654 571 l 626 542 l 569 542 l 540 514 l 513 514 l 456 468 l 626 397 l 626 368 l 654 340 l 654 201 l 626 174 l 626 144 l 428 -53 l 374 -53 l 304 32 l 288 3 l 288 -24 l 229 -81 l 229 -110 l 201 -110 l 172 -137 l 92 -137 l 35 -81 l 35 28 l 63 57 l 63 85 l 119 142 l 149 142 l 176 171 l 263 171 l 318 226 l 318 283 l 346 311 l 346 372 l 263 372 l 233 400 l 119 457 l 119 485 l 92 514 l 92 624 l 119 651 l 119 681 l 290 851 l 290 851 m 149 57 l 92 0 l 92 -53 l 119 -81 l 172 -81 l 229 -24 l 229 3 l 258 57 l 149 57 l 149 57 m 403 340 l 403 311 l 374 283 l 374 226 l 346 197 l 346 144 l 446 60 l 513 117 l 513 144 l 540 174 l 540 283 l 513 311 l 483 311 l 456 340 l 403 340 l 403 340 z "},"T":{"ha":719,"x_min":61,"x_max":681,"o":"m 628 851 l 681 851 l 681 768 l 624 713 l 596 713 l 567 685 l 483 685 l 483 628 l 454 599 l 454 258 l 314 126 l 371 85 l 397 85 l 426 57 l 514 57 l 600 142 l 653 142 l 511 -24 l 511 -53 l 372 -53 l 260 3 l 175 88 l 118 201 l 118 482 l 175 594 l 260 667 l 232 685 l 199 685 l 115 599 l 61 599 l 61 681 l 89 710 l 89 738 l 118 767 l 146 767 l 175 794 l 571 794 l 628 851 l 628 851 m 317 681 l 260 624 l 260 594 l 232 567 l 232 201 l 260 174 l 260 144 l 342 201 l 342 571 l 426 681 l 317 681 l 317 681 z "},"U":{"ha":719,"x_min":21,"x_max":668,"o":"m 149 851 l 188 824 l 188 794 l 217 767 l 217 174 l 188 144 l 188 114 l 300 114 l 403 57 l 474 142 l 474 713 l 360 713 l 360 767 l 389 767 l 417 794 l 446 794 l 517 851 l 611 767 l 640 767 l 640 713 l 583 713 l 583 114 l 640 57 l 668 57 l 668 3 l 640 3 l 583 -53 l 529 -53 l 488 60 l 385 -53 l 333 -53 l 276 3 l 131 3 l 74 -53 l 21 -53 l 21 28 l 106 114 l 106 344 l 92 372 l 74 344 l 74 315 l 21 315 l 21 397 l 106 482 l 106 713 l 21 713 l 21 767 l 50 767 l 149 851 l 149 851 z "},"V":{"ha":719,"x_min":61,"x_max":681,"o":"m 217 851 l 256 824 l 256 767 l 285 738 l 285 315 l 256 288 l 256 283 l 371 226 l 472 114 l 514 171 l 514 197 l 543 226 l 543 283 l 571 311 l 571 542 l 543 571 l 543 628 l 486 685 l 454 685 l 426 656 l 372 656 l 372 710 l 514 851 l 567 851 l 596 824 l 653 710 l 653 651 l 681 624 l 681 344 l 653 315 l 653 258 l 596 144 l 511 60 l 511 32 l 483 3 l 483 -53 l 429 -53 l 400 -24 l 400 3 l 289 117 l 260 117 l 232 144 l 171 144 l 115 88 l 61 88 l 61 171 l 89 197 l 89 226 l 118 226 l 175 283 l 175 457 l 161 485 l 143 457 l 143 428 l 89 428 l 89 511 l 175 594 l 175 685 l 61 685 l 61 738 l 89 738 l 217 851 l 217 851 z "},"W":{"ha":719,"x_min":6,"x_max":683,"o":"m 119 851 l 172 851 l 172 794 l 201 767 l 201 171 l 258 114 l 288 114 l 333 57 l 346 85 l 346 713 l 263 713 l 263 767 l 318 767 l 318 824 l 346 851 l 400 851 l 456 738 l 456 171 l 540 85 l 574 85 l 574 171 l 601 197 l 601 283 l 631 297 l 574 571 l 574 656 l 544 685 l 544 740 l 488 740 l 488 794 l 626 851 l 626 824 l 654 794 l 654 710 l 683 681 l 683 258 l 654 231 l 654 144 l 626 117 l 626 60 l 569 -53 l 517 -53 l 460 3 l 431 3 l 403 32 l 400 32 l 344 -24 l 344 -53 l 290 -53 l 233 3 l 206 3 l 176 32 l 144 32 l 60 -53 l 6 -53 l 6 28 l 35 57 l 35 85 l 119 171 l 119 344 l 106 372 l 88 344 l 88 315 l 35 315 l 35 397 l 119 482 l 119 656 l 63 713 l 6 713 l 6 767 l 35 767 l 119 851 l 119 851 z "},"X":{"ha":719,"x_min":21,"x_max":668,"o":"m 106 851 l 160 851 l 243 767 l 243 738 l 329 567 l 374 511 l 474 681 l 501 694 l 474 713 l 442 713 l 413 685 l 360 685 l 417 824 l 586 824 l 615 851 l 668 851 l 668 797 l 640 768 l 640 740 l 611 713 l 583 713 l 413 468 l 442 454 l 501 454 l 558 511 l 611 511 l 611 457 l 583 428 l 583 400 l 526 344 l 442 344 l 442 311 l 526 142 l 611 57 l 668 57 l 668 3 l 640 3 l 583 -53 l 529 -53 l 417 117 l 360 231 l 304 288 l 272 288 l 272 231 l 217 174 l 217 144 l 188 126 l 217 114 l 276 114 l 329 142 l 329 88 l 300 60 l 300 32 l 272 3 l 131 3 l 74 -53 l 21 -53 l 21 28 l 163 171 l 276 326 l 247 344 l 188 344 l 131 288 l 78 288 l 133 425 l 247 482 l 247 485 l 163 656 l 106 713 l 21 713 l 21 767 l 106 851 l 106 851 z "},"Y":{"ha":719,"x_min":21,"x_max":668,"o":"m 133 851 l 188 851 l 217 824 l 217 794 l 243 767 l 243 288 l 217 258 l 217 254 l 272 197 l 300 197 l 385 114 l 389 114 l 501 226 l 501 713 l 417 713 l 417 767 l 501 851 l 556 851 l 668 794 l 668 740 l 611 685 l 611 85 l 640 57 l 640 28 l 668 0 l 668 -137 l 556 -251 l 526 -251 l 499 -281 l 304 -281 l 276 -251 l 106 -167 l 106 -137 l 78 -110 l 78 0 l 106 28 l 160 28 l 160 0 l 188 -28 l 188 -57 l 243 -114 l 272 -114 l 300 -142 l 329 -142 l 488 -197 l 501 -171 l 529 -171 l 586 -114 l 586 -110 l 558 -81 l 558 -53 l 501 3 l 501 117 l 488 144 l 346 3 l 247 88 l 219 88 l 190 117 l 103 117 l 74 88 l 21 88 l 78 226 l 133 226 l 133 428 l 119 457 l 103 428 l 103 400 l 50 400 l 50 482 l 133 567 l 133 713 l 21 713 l 21 767 l 50 767 l 133 851 l 133 851 z "},"Z":{"ha":719,"x_min":63,"x_max":626,"o":"m 233 851 l 344 851 l 371 824 l 544 824 l 574 851 l 626 851 l 626 797 l 597 768 l 597 740 l 428 496 l 456 482 l 488 482 l 544 538 l 597 538 l 597 485 l 569 457 l 569 428 l 513 372 l 371 372 l 315 258 l 201 99 l 229 85 l 488 85 l 574 171 l 626 171 l 626 117 l 569 3 l 540 -24 l 144 -24 l 115 -53 l 63 -53 l 63 0 l 92 28 l 92 57 l 263 311 l 290 340 l 290 372 l 201 372 l 144 315 l 92 315 l 149 454 l 176 454 l 206 482 l 374 482 l 374 538 l 488 694 l 460 713 l 318 713 l 290 740 l 229 740 l 119 656 l 119 738 l 149 767 l 149 794 l 176 824 l 206 824 l 233 851 l 233 851 z "},"[":{"ha":719,"x_min":229,"x_max":565,"o":"m 456 936 l 538 936 l 538 883 l 481 883 l 453 854 l 340 854 l 340 0 l 424 -85 l 453 -85 l 469 -114 l 513 -57 l 565 -57 l 565 -110 l 510 -167 l 428 -167 l 400 -137 l 229 -53 l 229 879 l 456 936 l 456 936 z "},"\\":{"ha":719,"x_min":106,"x_max":583,"o":"m 106 993 l 272 993 l 217 911 l 217 907 l 526 -28 l 583 -167 l 417 -167 l 474 -99 l 446 -81 l 106 940 l 106 993 l 106 993 z "},"]":{"ha":719,"x_min":176,"x_max":513,"o":"m 233 936 l 315 936 l 483 851 l 513 824 l 513 -110 l 428 -110 l 400 -137 l 315 -137 l 288 -167 l 206 -167 l 206 -114 l 263 -114 l 290 -85 l 403 -85 l 403 768 l 318 854 l 290 854 l 276 883 l 229 826 l 176 826 l 176 879 l 233 936 l 233 936 z "},"^":{"ha":719,"x_min":146,"x_max":596,"o":"m 344 1078 l 397 1078 l 454 1021 l 483 1021 l 511 993 l 596 993 l 596 940 l 567 911 l 457 911 l 429 940 l 400 940 l 344 997 l 342 997 l 146 911 l 146 964 l 175 964 l 289 1021 l 344 1078 l 344 1078 z "},"_":{"ha":719,"x_min":-8,"x_max":697,"o":"m -8 -254 l 697 -254 l 697 -336 l -8 -336 l -8 -254 l -8 -254 z "},"`":{"ha":732,"x_min":151,"x_max":431,"o":"m 151 1078 l 263 1078 l 346 993 l 374 993 l 403 964 l 431 964 l 431 911 l 236 968 l 208 968 l 151 1025 l 151 1078 l 151 1078 z "},"a":{"ha":719,"x_min":50,"x_max":640,"o":"m 276 681 l 329 681 l 611 525 l 556 457 l 556 114 l 640 14 l 583 -53 l 529 -53 l 474 3 l 474 32 l 460 60 l 290 -53 l 50 3 l 50 57 l 133 142 l 133 258 l 78 340 l 219 340 l 247 368 l 304 368 l 417 425 l 474 468 l 446 485 l 276 571 l 243 571 l 119 525 l 163 594 l 190 594 l 276 681 l 276 681 m 469 397 l 333 340 l 304 311 l 247 311 l 219 283 l 219 88 l 346 32 l 385 60 l 413 60 l 469 117 l 469 397 l 469 397 z "},"b":{"ha":719,"x_min":21,"x_max":668,"o":"m 149 964 l 188 936 l 188 879 l 217 851 l 217 538 l 233 511 l 276 567 l 304 567 l 389 651 l 442 651 l 526 567 l 556 567 l 583 538 l 668 538 l 668 485 l 640 457 l 583 457 l 583 85 l 640 28 l 640 -24 l 529 -24 l 501 3 l 442 3 l 318 -53 l 276 -24 l 190 -24 l 163 3 l 50 3 l 50 57 l 133 142 l 133 740 l 78 797 l 21 797 l 21 851 l 50 851 l 106 907 l 106 936 l 149 964 l 149 964 m 304 538 l 219 454 l 219 88 l 333 32 l 413 32 l 442 60 l 499 60 l 499 454 l 469 482 l 442 482 l 385 538 l 304 538 l 304 538 z "},"c":{"ha":719,"x_min":89,"x_max":653,"o":"m 400 681 l 454 681 l 539 594 l 571 594 l 600 624 l 653 624 l 653 542 l 596 485 l 486 485 l 457 514 l 429 514 l 372 571 l 342 571 l 314 542 l 256 542 l 256 142 l 371 85 l 415 28 l 571 114 l 653 114 l 653 60 l 596 60 l 567 32 l 539 32 l 454 -53 l 372 -53 l 344 -24 l 260 -24 l 232 3 l 89 3 l 89 57 l 175 142 l 175 457 l 118 514 l 118 567 l 289 624 l 400 681 l 400 681 z "},"d":{"ha":719,"x_min":61,"x_max":681,"o":"m 317 964 l 371 964 l 426 907 l 426 879 l 596 651 l 653 594 l 653 542 l 596 542 l 596 114 l 681 3 l 454 3 l 331 -53 l 289 -24 l 203 -24 l 175 3 l 61 3 l 61 57 l 146 142 l 146 542 l 89 542 l 89 594 l 289 594 l 317 624 l 372 624 l 400 651 l 457 651 l 457 685 l 372 768 l 372 797 l 317 854 l 203 854 l 203 907 l 260 907 l 317 964 l 317 964 m 472 624 l 429 594 l 400 594 l 232 538 l 232 117 l 260 88 l 289 88 l 344 32 l 426 32 l 454 60 l 511 60 l 511 594 l 472 624 l 472 624 z "},"e":{"ha":719,"x_min":50,"x_max":640,"o":"m 360 681 l 413 681 l 469 567 l 611 425 l 640 425 l 640 372 l 611 372 l 356 288 l 243 231 l 217 201 l 217 142 l 272 85 l 300 85 l 329 57 l 356 57 l 385 28 l 417 28 l 446 57 l 558 114 l 640 114 l 640 60 l 583 60 l 346 -53 l 304 -24 l 219 -24 l 190 3 l 50 3 l 50 57 l 133 142 l 133 457 l 78 514 l 78 567 l 163 567 l 190 594 l 247 594 l 276 624 l 304 624 l 360 681 l 360 681 m 276 567 l 247 538 l 219 538 l 219 288 l 356 344 l 413 344 l 442 372 l 499 372 l 356 538 l 356 567 l 276 567 l 276 567 z "},"f":{"ha":719,"x_min":63,"x_max":626,"o":"m 346 879 l 400 879 l 483 794 l 513 794 l 540 767 l 626 767 l 626 713 l 597 685 l 431 685 l 403 713 l 374 713 l 318 768 l 315 768 l 258 713 l 258 538 l 597 538 l 597 485 l 258 485 l 258 114 l 417 0 l 460 57 l 513 57 l 513 3 l 483 3 l 400 -81 l 346 -81 l 92 3 l 92 57 l 119 85 l 176 85 l 176 485 l 63 485 l 63 538 l 176 538 l 176 628 l 119 685 l 119 738 l 176 738 l 206 767 l 233 767 l 346 879 l 346 879 z "},"g":{"ha":719,"x_min":61,"x_max":681,"o":"m 372 681 l 426 681 l 483 624 l 511 624 l 539 594 l 653 594 l 653 542 l 567 457 l 567 85 l 653 0 l 653 -28 l 681 -57 l 681 -137 l 653 -167 l 653 -194 l 539 -251 l 511 -281 l 317 -281 l 260 -224 l 171 -224 l 143 -251 l 89 -251 l 89 -171 l 118 -142 l 146 -142 l 175 -114 l 314 -114 l 342 -142 l 371 -142 l 454 -226 l 486 -226 l 571 -142 l 571 -81 l 543 -53 l 543 -24 l 457 60 l 454 60 l 426 32 l 397 32 l 342 -24 l 289 -24 l 61 32 l 61 85 l 146 171 l 146 457 l 89 514 l 89 567 l 260 624 l 372 681 l 372 681 m 331 594 l 289 567 l 260 567 l 232 538 l 232 117 l 360 60 l 397 88 l 426 88 l 454 117 l 483 117 l 483 482 l 454 511 l 426 511 l 331 594 l 331 594 z "},"h":{"ha":719,"x_min":35,"x_max":654,"o":"m 163 964 l 201 936 l 201 879 l 229 851 l 229 567 l 247 538 l 417 651 l 483 594 l 513 594 l 540 567 l 654 567 l 654 514 l 569 428 l 569 114 l 626 57 l 654 57 l 654 3 l 597 3 l 597 -53 l 544 -53 l 517 -24 l 517 3 l 488 32 l 488 457 l 460 485 l 346 542 l 315 542 l 229 457 l 229 57 l 315 57 l 315 3 l 288 3 l 229 -53 l 176 -53 l 119 3 l 63 3 l 63 57 l 92 57 l 149 114 l 149 740 l 92 797 l 35 797 l 35 851 l 63 851 l 119 907 l 119 936 l 163 964 l 163 964 z "},"i":{"ha":719,"x_min":104,"x_max":639,"o":"m 331 681 l 382 681 l 382 651 l 468 567 l 496 567 l 496 514 l 411 514 l 411 57 l 496 57 l 525 28 l 639 28 l 639 -24 l 439 -24 l 411 -53 l 331 -53 l 303 -24 l 104 -24 l 104 28 l 246 28 l 274 57 l 331 57 l 331 514 l 104 514 l 104 567 l 189 567 l 217 594 l 246 594 l 331 681 l 331 681 m 303 964 l 356 964 l 411 907 l 468 907 l 468 854 l 439 854 l 356 768 l 303 768 l 246 826 l 189 826 l 189 879 l 217 879 l 303 964 l 303 964 z "},"j":{"ha":719,"x_min":36,"x_max":600,"o":"m 433 681 l 486 681 l 486 651 l 571 567 l 600 567 l 600 514 l 514 514 l 514 197 l 543 171 l 543 -53 l 486 -167 l 372 -281 l 319 -281 l 235 -194 l 146 -194 l 89 -251 l 36 -251 l 36 -171 l 65 -142 l 65 -114 l 93 -114 l 122 -85 l 261 -85 l 289 -114 l 317 -114 l 390 -197 l 433 -142 l 433 -114 l 461 -85 l 461 117 l 433 144 l 433 514 l 179 514 l 179 567 l 263 567 l 376 624 l 433 681 l 433 681 m 376 964 l 429 964 l 486 907 l 543 907 l 543 854 l 514 854 l 429 768 l 376 768 l 319 826 l 263 826 l 263 879 l 292 879 l 376 964 l 376 964 z "},"k":{"ha":719,"x_min":61,"x_max":681,"o":"m 189 964 l 228 936 l 228 879 l 256 851 l 256 594 l 274 567 l 289 594 l 317 594 l 372 651 l 400 651 l 429 681 l 483 681 l 511 651 l 511 624 l 567 567 l 567 538 l 596 511 l 596 457 l 454 326 l 539 254 l 539 226 l 567 197 l 567 114 l 624 57 l 681 57 l 681 3 l 653 3 l 596 -53 l 543 -53 l 486 3 l 429 174 l 429 201 l 360 288 l 314 231 l 256 231 l 256 57 l 314 57 l 342 28 l 342 -24 l 285 -24 l 256 -53 l 203 -53 l 175 -24 l 89 -24 l 89 28 l 118 57 l 175 57 l 175 768 l 118 826 l 61 826 l 61 879 l 89 907 l 118 907 l 189 964 l 189 964 m 415 594 l 289 538 l 260 511 l 260 288 l 314 288 l 371 344 l 397 344 l 426 372 l 454 372 l 511 439 l 454 567 l 415 594 l 415 594 z "},"l":{"ha":719,"x_min":104,"x_max":639,"o":"m 331 907 l 382 907 l 382 879 l 468 794 l 525 794 l 525 740 l 411 740 l 411 85 l 639 28 l 639 -24 l 439 -24 l 411 -53 l 360 -53 l 331 -24 l 133 -24 l 133 28 l 217 28 l 246 57 l 331 57 l 331 685 l 274 740 l 104 740 l 104 794 l 189 794 l 217 824 l 246 824 l 331 907 l 331 907 z "},"m":{"ha":719,"x_min":-8,"x_max":697,"o":"m 50 681 l 131 624 l 131 594 l 149 567 l 190 624 l 190 651 l 219 681 l 272 681 l 385 567 l 389 567 l 446 624 l 446 651 l 474 681 l 526 681 l 611 594 l 668 594 l 668 542 l 611 485 l 611 57 l 697 57 l 668 3 l 611 3 l 611 -53 l 558 -24 l 558 3 l 529 32 l 529 485 l 460 571 l 385 485 l 385 28 l 469 28 l 333 -53 l 333 -24 l 304 3 l 304 485 l 219 571 l 217 571 l 160 514 l 160 85 l 217 28 l 243 28 l 243 -24 l 188 -24 l 160 -53 l 106 -53 l 78 -24 l -8 -24 l -8 28 l 21 28 l 78 85 l 78 542 l -8 542 l -8 594 l 50 651 l 50 681 l 50 681 z "},"n":{"ha":719,"x_min":61,"x_max":681,"o":"m 189 681 l 228 651 l 274 482 l 429 651 l 429 681 l 483 681 l 567 594 l 596 594 l 624 567 l 681 567 l 681 514 l 653 485 l 596 485 l 596 85 l 653 28 l 681 28 l 681 -24 l 653 -24 l 624 -53 l 571 -53 l 543 -24 l 543 3 l 514 32 l 514 457 l 415 571 l 256 400 l 256 85 l 314 28 l 371 28 l 371 -24 l 285 -24 l 256 -53 l 175 -53 l 146 -24 l 61 -24 l 61 28 l 118 28 l 175 85 l 175 514 l 61 514 l 61 567 l 89 567 l 146 624 l 146 651 l 189 681 l 189 681 z "},"o":{"ha":719,"x_min":61,"x_max":681,"o":"m 400 681 l 454 681 l 511 624 l 567 624 l 596 594 l 681 594 l 681 542 l 653 514 l 596 514 l 596 114 l 681 3 l 454 3 l 426 -24 l 371 -24 l 342 -53 l 289 -53 l 260 -24 l 203 -24 l 175 3 l 61 3 l 61 57 l 146 142 l 146 457 l 89 514 l 61 514 l 61 567 l 146 567 l 175 594 l 344 651 l 372 651 l 400 681 l 400 681 m 360 594 l 232 538 l 232 117 l 415 32 l 454 60 l 511 60 l 511 511 l 483 511 l 454 538 l 426 538 l 360 594 l 360 594 z "},"p":{"ha":719,"x_min":21,"x_max":668,"o":"m 176 681 l 217 651 l 217 567 l 247 567 l 360 624 l 417 681 l 469 681 l 526 624 l 556 624 l 583 594 l 668 594 l 668 542 l 640 542 l 583 485 l 583 142 l 611 114 l 611 85 l 640 32 l 499 32 l 360 -24 l 360 3 l 263 117 l 243 88 l 243 -224 l 217 -251 l 217 -281 l 176 -308 l 78 -224 l 50 -224 l 50 -171 l 163 -171 l 163 117 l 131 117 l 103 88 l 50 88 l 50 142 l 106 197 l 163 197 l 163 457 l 106 514 l 21 514 l 21 567 l 133 624 l 133 651 l 176 681 l 176 681 m 333 567 l 276 511 l 247 511 l 247 201 l 276 201 l 304 174 l 333 174 l 417 88 l 417 60 l 469 60 l 499 88 l 499 511 l 469 538 l 442 538 l 413 567 l 333 567 l 333 567 z "},"q":{"ha":719,"x_min":35,"x_max":654,"o":"m 318 681 l 371 681 l 400 651 l 428 651 l 456 624 l 513 624 l 540 594 l 626 594 l 626 542 l 597 514 l 540 514 l 540 -114 l 597 -171 l 654 -171 l 654 -224 l 626 -224 l 529 -308 l 488 -281 l 488 -251 l 460 -224 l 460 60 l 428 60 l 400 32 l 371 32 l 315 -24 l 263 -24 l 206 32 l 92 88 l 35 88 l 35 142 l 63 171 l 119 171 l 119 457 l 63 514 l 63 567 l 149 567 l 176 594 l 233 594 l 318 681 l 318 681 m 263 567 l 233 538 l 206 538 l 206 174 l 333 60 l 371 88 l 400 88 l 428 117 l 456 117 l 456 511 l 344 567 l 263 567 l 263 567 z "},"r":{"ha":719,"x_min":50,"x_max":640,"o":"m 163 681 l 217 651 l 217 624 l 243 594 l 243 511 l 263 482 l 360 651 l 389 681 l 442 681 l 442 651 l 526 567 l 558 567 l 586 594 l 640 594 l 640 542 l 611 514 l 611 485 l 583 457 l 474 457 l 374 571 l 356 542 l 356 514 l 300 457 l 300 428 l 243 372 l 243 114 l 318 28 l 442 85 l 442 32 l 413 32 l 385 3 l 356 3 l 300 -53 l 247 -53 l 190 3 l 163 3 l 133 32 l 78 32 l 78 85 l 106 114 l 163 114 l 163 542 l 50 542 l 50 594 l 106 594 l 163 651 l 163 681 l 163 681 z "},"s":{"ha":719,"x_min":50,"x_max":640,"o":"m 304 681 l 356 681 l 442 594 l 529 594 l 558 624 l 611 624 l 611 571 l 583 542 l 583 514 l 556 485 l 417 485 l 389 514 l 360 514 l 290 599 l 217 514 l 217 454 l 272 397 l 300 397 l 469 340 l 583 283 l 611 254 l 611 226 l 640 197 l 640 117 l 556 32 l 526 32 l 499 3 l 469 3 l 413 -53 l 360 -53 l 78 3 l 78 57 l 106 85 l 133 85 l 163 114 l 272 114 l 431 28 l 529 142 l 529 144 l 474 201 l 446 201 l 417 231 l 360 231 l 333 258 l 304 258 l 276 288 l 219 288 l 190 315 l 163 315 l 163 344 l 133 372 l 133 457 l 50 457 l 50 511 l 78 511 l 106 538 l 133 538 l 219 624 l 247 624 l 304 681 l 304 681 z "},"t":{"ha":719,"x_min":89,"x_max":653,"o":"m 232 851 l 285 851 l 342 738 l 342 538 l 543 538 l 600 594 l 653 594 l 653 542 l 596 428 l 567 400 l 567 340 l 596 311 l 596 258 l 557 231 l 514 258 l 514 425 l 543 454 l 543 485 l 342 485 l 342 142 l 397 85 l 426 85 l 472 28 l 596 85 l 596 32 l 567 32 l 539 3 l 511 3 l 454 -53 l 400 -53 l 372 -24 l 344 -24 l 175 32 l 175 85 l 203 114 l 260 114 l 260 485 l 89 485 l 89 538 l 260 538 l 260 628 l 232 656 l 232 713 l 146 713 l 146 767 l 232 851 l 232 851 z "},"u":{"ha":719,"x_min":21,"x_max":668,"o":"m 133 681 l 188 681 l 243 567 l 243 85 l 300 85 l 346 28 l 501 197 l 501 485 l 446 542 l 360 542 l 360 594 l 417 594 l 474 651 l 474 681 l 526 681 l 583 567 l 583 114 l 640 57 l 668 57 l 668 3 l 640 3 l 574 -53 l 529 -24 l 529 32 l 501 60 l 501 88 l 488 117 l 329 -53 l 276 -53 l 247 -24 l 190 -24 l 163 3 l 78 3 l 78 57 l 163 142 l 163 485 l 106 542 l 21 542 l 21 594 l 78 594 l 133 651 l 133 681 l 133 681 z "},"v":{"ha":719,"x_min":63,"x_max":626,"o":"m 176 681 l 229 651 l 229 594 l 258 567 l 258 226 l 315 171 l 344 171 l 446 57 l 460 85 l 517 197 l 517 254 l 544 283 l 544 372 l 517 400 l 517 485 l 488 514 l 488 571 l 403 571 l 403 624 l 460 624 l 517 681 l 569 681 l 626 511 l 626 258 l 540 88 l 428 -24 l 428 -53 l 374 -53 l 374 -24 l 263 88 l 233 88 l 206 117 l 172 117 l 144 88 l 92 88 l 92 142 l 176 226 l 176 485 l 119 542 l 63 542 l 63 594 l 119 594 l 176 651 l 176 681 l 176 681 z "},"w":{"ha":719,"x_min":6,"x_max":683,"o":"m 92 681 l 144 651 l 144 594 l 172 567 l 172 85 l 229 85 l 276 28 l 346 114 l 346 571 l 263 571 l 263 624 l 346 624 l 346 681 l 400 681 l 400 624 l 428 594 l 428 142 l 513 57 l 517 57 l 544 85 l 601 197 l 601 372 l 574 400 l 574 485 l 544 514 l 544 571 l 488 571 l 488 624 l 544 624 l 544 681 l 597 681 l 654 567 l 654 511 l 683 482 l 683 174 l 626 60 l 513 -53 l 460 -53 l 374 32 l 344 32 l 247 -53 l 119 3 l 63 3 l 35 32 l 6 32 l 6 85 l 35 114 l 92 114 l 92 542 l 6 542 l 6 594 l 35 594 l 92 651 l 92 681 l 92 681 z "},"x":{"ha":719,"x_min":21,"x_max":668,"o":"m 133 681 l 188 651 l 188 624 l 300 454 l 329 425 l 360 425 l 360 482 l 389 511 l 501 681 l 668 681 l 668 628 l 611 571 l 499 571 l 442 457 l 385 400 l 385 372 l 356 354 l 413 311 l 583 57 l 668 57 l 668 3 l 611 3 l 556 -53 l 501 -53 l 501 -24 l 389 144 l 304 231 l 272 231 l 272 174 l 217 117 l 217 88 l 188 69 l 217 57 l 247 57 l 300 85 l 300 3 l 272 -24 l 272 -53 l 219 -53 l 190 -24 l 131 -24 l 74 -69 l 103 -85 l 103 -137 l 50 -137 l 21 -110 l 21 0 l 78 57 l 106 57 l 163 114 l 163 142 l 219 254 l 276 297 l 106 542 l 21 542 l 21 594 l 133 651 l 133 681 l 133 681 z "},"y":{"ha":719,"x_min":50,"x_max":640,"o":"m 163 681 l 217 651 l 217 624 l 243 594 l 243 197 l 329 114 l 360 114 l 389 142 l 501 197 l 501 542 l 389 542 l 389 594 l 501 651 l 501 681 l 556 651 l 556 624 l 583 594 l 583 85 l 611 57 l 611 28 l 640 0 l 640 -137 l 611 -167 l 611 -194 l 556 -251 l 526 -251 l 499 -281 l 360 -281 l 247 -167 l 243 -167 l 188 -224 l 133 -224 l 133 -142 l 190 -85 l 300 -85 l 329 -114 l 356 -114 l 385 -142 l 385 -171 l 442 -226 l 474 -226 l 529 -171 l 529 -114 l 558 -85 l 558 -53 l 529 -24 l 529 3 l 501 32 l 501 117 l 469 117 l 442 88 l 413 88 l 318 3 l 133 88 l 78 88 l 78 142 l 163 226 l 163 542 l 50 542 l 50 594 l 163 651 l 163 681 l 163 681 z "},"z":{"ha":719,"x_min":78,"x_max":611,"o":"m 190 681 l 272 681 l 300 651 l 474 651 l 501 681 l 556 681 l 556 628 l 526 599 l 526 571 l 469 514 l 469 485 l 442 457 l 442 428 l 413 411 l 442 397 l 474 397 l 556 454 l 556 372 l 526 344 l 526 315 l 385 315 l 329 258 l 329 231 l 272 117 l 243 99 l 517 57 l 558 114 l 558 117 l 517 174 l 499 144 l 499 117 l 446 117 l 417 144 l 417 197 l 446 226 l 556 226 l 611 171 l 611 60 l 556 -53 l 474 -53 l 446 -24 l 217 -24 l 188 -53 l 78 -53 l 133 28 l 247 197 l 304 297 l 276 315 l 243 315 l 163 258 l 163 340 l 190 368 l 190 397 l 333 397 l 389 454 l 446 553 l 417 571 l 413 571 l 385 542 l 276 542 l 247 571 l 188 571 l 188 514 l 133 514 l 133 567 l 190 681 l 190 681 z "},"{":{"ha":719,"x_min":106,"x_max":583,"o":"m 417 936 l 556 936 l 556 883 l 442 883 l 413 854 l 356 854 l 356 797 l 329 768 l 329 542 l 300 514 l 300 485 l 217 400 l 217 368 l 272 368 l 300 340 l 356 226 l 356 57 l 385 28 l 385 0 l 442 -57 l 529 -57 l 529 0 l 583 0 l 583 -81 l 556 -110 l 526 -110 l 488 -137 l 304 -81 l 247 32 l 247 201 l 219 231 l 219 258 l 106 372 l 106 425 l 133 425 l 219 511 l 219 538 l 247 567 l 247 794 l 276 824 l 276 851 l 333 907 l 389 907 l 417 936 l 417 936 z "},"|":{"ha":719,"x_min":304,"x_max":385,"o":"m 304 964 l 385 964 l 385 -224 l 304 -224 l 304 964 l 304 964 z "},"}":{"ha":719,"x_min":106,"x_max":583,"o":"m 190 936 l 272 936 l 300 907 l 356 907 l 385 879 l 442 767 l 442 594 l 469 567 l 469 538 l 583 425 l 583 372 l 556 372 l 469 288 l 469 258 l 442 231 l 442 3 l 413 -24 l 413 -53 l 356 -110 l 300 -110 l 272 -137 l 133 -137 l 133 -85 l 247 -85 l 276 -57 l 333 -57 l 333 0 l 360 28 l 360 254 l 389 283 l 389 311 l 474 397 l 474 428 l 417 428 l 389 457 l 333 571 l 333 740 l 304 768 l 304 797 l 247 854 l 160 854 l 160 797 l 106 797 l 106 879 l 133 907 l 163 907 l 190 936 l 190 936 z "},"~":{"ha":719,"x_min":106,"x_max":583,"o":"m 190 1078 l 329 1078 l 413 993 l 446 993 l 529 1078 l 583 1078 l 583 997 l 556 968 l 556 940 l 526 940 l 499 911 l 360 911 l 276 997 l 243 997 l 160 911 l 106 911 l 106 993 l 133 1021 l 133 1050 l 163 1050 l 190 1078 l 190 1078 z "},"Ä":{"ha":719,"x_min":-8,"x_max":697,"o":"m -8 397 l 697 397 l 697 315 l -8 315 l -8 397 l -8 397 z "},"Å":{"ha":719,"x_min":-8,"x_max":697,"o":"m 304 1078 l 385 1078 l 385 397 l 697 397 l 697 315 l 385 315 l 385 -336 l 304 -336 l 304 315 l -8 315 l -8 397 l 304 397 l 304 1078 l 304 1078 z "},"Ç":{"ha":719,"x_min":21,"x_max":668,"o":"m 219 851 l 356 851 l 385 824 l 413 824 l 469 710 l 469 624 l 499 594 l 499 482 l 526 454 l 611 114 l 611 57 l 668 57 l 668 3 l 640 3 l 574 -53 l 529 -24 l 529 3 l 501 32 l 501 88 l 474 117 l 474 201 l 417 258 l 217 258 l 217 201 l 188 174 l 188 114 l 276 114 l 329 142 l 329 88 l 300 60 l 300 32 l 272 3 l 131 3 l 74 -53 l 21 -53 l 21 28 l 50 57 l 50 85 l 78 114 l 133 114 l 133 197 l 163 226 l 163 311 l 190 340 l 190 400 l 131 400 l 50 344 l 50 425 l 106 482 l 219 482 l 219 538 l 276 751 l 247 768 l 243 768 l 188 713 l 188 685 l 133 685 l 133 767 l 163 794 l 163 824 l 190 824 l 219 851 l 219 851 m 356 710 l 333 710 l 333 681 l 276 454 l 247 425 l 247 344 l 413 344 l 413 454 l 385 482 l 385 594 l 356 624 l 356 710 l 356 710 m 190 1078 l 329 1078 l 413 993 l 446 993 l 529 1078 l 583 1078 l 583 997 l 556 968 l 556 940 l 526 940 l 499 911 l 360 911 l 276 997 l 243 997 l 160 911 l 106 911 l 106 993 l 133 1021 l 133 1050 l 163 1050 l 190 1078 l 190 1078 z "},"É":{"ha":732,"x_min":211,"x_max":717,"o":"m 211 538 l 717 538 l 717 457 l 292 457 l 292 -336 l 211 -336 l 211 538 l 211 538 m 465 283 l 717 283 l 717 201 l 547 201 l 547 -336 l 465 -336 l 465 283 l 465 283 z "},"Ñ":{"ha":719,"x_min":21,"x_max":668,"o":"m 333 851 l 442 851 l 469 824 l 499 824 l 583 738 l 640 624 l 640 567 l 668 538 l 668 288 l 611 174 l 469 32 l 469 3 l 188 3 l 131 -53 l 78 -53 l 78 28 l 106 57 l 106 85 l 163 85 l 163 372 l 103 372 l 74 344 l 21 344 l 21 425 l 78 482 l 163 482 l 163 571 l 106 571 l 219 694 l 190 713 l 160 713 l 103 656 l 50 656 l 50 738 l 106 794 l 133 794 l 163 824 l 243 824 l 272 794 l 276 794 l 333 851 l 333 851 m 304 738 l 276 710 l 276 485 l 356 485 l 385 514 l 417 514 l 417 454 l 333 368 l 276 368 l 276 226 l 247 197 l 247 171 l 219 117 l 469 117 l 526 174 l 526 201 l 556 231 l 556 511 l 526 538 l 526 594 l 499 624 l 499 651 l 442 710 l 413 710 l 385 738 l 304 738 l 304 738 z "},"Ö":{"ha":719,"x_min":78,"x_max":611,"o":"m 558 851 l 611 851 l 611 797 l 583 768 l 583 740 l 556 713 l 526 713 l 499 685 l 413 685 l 413 628 l 385 599 l 385 231 l 356 201 l 356 144 l 329 126 l 356 114 l 501 114 l 558 171 l 611 171 l 611 117 l 583 88 l 583 60 l 556 32 l 526 32 l 499 3 l 188 3 l 131 -53 l 78 -53 l 133 85 l 247 142 l 247 171 l 276 197 l 276 567 l 304 594 l 304 651 l 333 667 l 304 685 l 188 685 l 131 628 l 78 628 l 133 767 l 163 767 l 190 794 l 501 794 l 558 851 l 558 851 m 446 1078 l 556 1078 l 556 1025 l 499 968 l 469 968 l 276 911 l 276 964 l 304 964 l 333 993 l 360 993 l 446 1078 l 446 1078 z "},"Ü":{"ha":719,"x_min":-8,"x_max":697,"o":"m -8 368 l 697 368 l 697 -336 l -8 -336 l -8 368 l -8 368 z "},"á":{"ha":719,"x_min":35,"x_max":654,"o":"m 346 851 l 400 851 l 428 824 l 456 824 l 597 681 l 597 571 l 483 468 l 626 340 l 626 311 l 654 283 l 654 88 l 513 -53 l 374 -53 l 318 3 l 318 142 l 374 197 l 428 197 l 456 171 l 456 117 l 400 60 l 400 28 l 517 28 l 574 85 l 574 174 l 544 201 l 544 231 l 431 344 l 403 344 l 374 372 l 346 372 l 346 454 l 403 454 l 488 538 l 488 628 l 403 713 l 374 713 l 346 740 l 344 740 l 258 656 l 258 144 l 229 117 l 229 -24 l 201 -53 l 149 -53 l 92 3 l 35 3 l 35 57 l 149 57 l 149 344 l 133 372 l 115 344 l 115 315 l 63 315 l 63 397 l 149 482 l 149 651 l 346 851 l 346 851 z "},"à":{"ha":719,"x_min":35,"x_max":654,"o":"m 403 879 l 456 879 l 569 767 l 626 651 l 626 594 l 654 567 l 654 258 l 626 231 l 626 174 l 569 60 l 483 -24 l 483 -53 l 318 -53 l 290 -24 l 233 -24 l 206 3 l 176 3 l 119 60 l 63 174 l 63 231 l 35 258 l 35 538 l 63 567 l 63 624 l 119 738 l 233 851 l 288 851 l 201 740 l 201 713 l 172 685 l 172 656 l 144 628 l 144 226 l 163 197 l 263 311 l 263 656 l 233 694 l 403 879 l 403 879 m 346 767 l 346 340 l 206 197 l 206 144 l 263 88 l 290 88 l 318 60 l 483 60 l 513 88 l 513 117 l 540 144 l 540 231 l 569 258 l 569 425 l 540 454 l 540 538 l 513 567 l 513 624 l 483 651 l 483 681 l 400 767 l 346 767 l 346 767 m 460 1078 l 569 1078 l 569 1025 l 513 968 l 483 968 l 290 911 l 290 964 l 318 964 l 346 993 l 374 993 l 460 1078 l 460 1078 z "},"â":{"ha":719,"x_min":35,"x_max":654,"o":"m 374 879 l 428 879 l 456 851 l 483 851 l 569 767 l 626 651 l 626 594 l 654 567 l 654 258 l 626 231 l 626 174 l 569 60 l 483 -24 l 483 -53 l 318 -53 l 290 -24 l 233 -24 l 206 3 l 176 3 l 119 60 l 63 174 l 63 231 l 35 258 l 35 538 l 63 567 l 63 624 l 119 738 l 233 851 l 288 851 l 201 740 l 201 713 l 172 685 l 172 656 l 144 628 l 144 226 l 163 197 l 263 311 l 263 656 l 233 694 l 374 851 l 374 879 l 374 879 m 346 767 l 346 340 l 206 197 l 206 144 l 263 88 l 290 88 l 318 60 l 483 60 l 513 88 l 513 117 l 540 144 l 540 231 l 569 258 l 569 425 l 540 454 l 540 538 l 513 567 l 513 624 l 483 651 l 483 681 l 400 767 l 346 767 l 346 767 m 346 1078 l 400 1078 l 456 1021 l 483 1021 l 513 993 l 597 993 l 597 940 l 569 911 l 460 911 l 431 940 l 403 940 l 346 997 l 344 997 l 149 911 l 149 964 l 176 964 l 290 1021 l 346 1078 l 346 1078 z "},"ä":{"ha":719,"x_min":61,"x_max":681,"o":"m 400 681 l 454 681 l 511 624 l 567 624 l 596 594 l 681 594 l 681 542 l 653 514 l 596 514 l 596 114 l 681 3 l 454 3 l 426 -24 l 371 -24 l 342 -53 l 289 -53 l 260 -24 l 203 -24 l 175 3 l 61 3 l 61 57 l 146 142 l 146 457 l 89 514 l 61 514 l 61 567 l 146 567 l 175 594 l 344 651 l 372 651 l 400 681 l 400 681 m 360 594 l 232 538 l 232 117 l 415 32 l 454 60 l 511 60 l 511 511 l 483 511 l 454 538 l 426 538 l 360 594 l 360 594 m 232 936 l 371 936 l 454 851 l 486 851 l 571 936 l 624 936 l 624 854 l 596 826 l 596 797 l 567 797 l 539 768 l 400 768 l 317 854 l 285 854 l 199 768 l 146 768 l 146 851 l 175 879 l 175 907 l 203 907 l 232 936 l 232 936 z "},"ã":{"ha":719,"x_min":35,"x_max":654,"o":"m 346 879 l 400 879 l 513 824 l 569 767 l 626 651 l 626 594 l 654 567 l 654 258 l 626 231 l 626 174 l 569 60 l 483 -24 l 483 -53 l 318 -53 l 290 -24 l 233 -24 l 206 3 l 176 3 l 119 60 l 63 174 l 63 231 l 35 258 l 35 538 l 63 567 l 63 624 l 119 738 l 233 851 l 288 851 l 201 740 l 201 713 l 172 685 l 172 656 l 144 628 l 144 226 l 163 197 l 263 311 l 263 656 l 233 694 l 318 794 l 318 824 l 346 851 l 346 879 l 346 879 m 346 767 l 346 340 l 206 197 l 206 144 l 263 88 l 290 88 l 318 60 l 483 60 l 513 88 l 513 117 l 540 144 l 540 231 l 569 258 l 569 425 l 540 454 l 540 538 l 513 567 l 513 624 l 483 651 l 483 681 l 400 767 l 346 767 l 346 767 m 206 1078 l 315 1078 l 400 993 l 428 993 l 456 964 l 483 964 l 483 911 l 431 911 l 403 940 l 318 940 l 290 968 l 263 968 l 206 1025 l 206 1078 l 206 1078 z "},"å":{"ha":719,"x_min":35,"x_max":654,"o":"m 403 851 l 456 851 l 569 738 l 626 624 l 626 567 l 654 538 l 654 258 l 626 231 l 626 174 l 569 60 l 483 -24 l 483 -53 l 318 -53 l 290 -24 l 233 -24 l 206 3 l 176 3 l 119 60 l 63 174 l 63 231 l 35 258 l 35 538 l 63 567 l 63 624 l 119 738 l 206 824 l 258 824 l 201 740 l 201 713 l 172 685 l 172 656 l 144 628 l 144 226 l 163 197 l 263 311 l 263 628 l 233 667 l 403 851 l 403 851 m 374 738 l 374 368 l 206 197 l 206 144 l 263 88 l 318 88 l 346 60 l 483 60 l 513 88 l 513 117 l 540 144 l 540 231 l 569 258 l 569 397 l 540 425 l 540 511 l 513 538 l 513 594 l 483 624 l 483 651 l 374 738 l 374 738 m 206 1078 l 344 1078 l 428 993 l 460 993 l 544 1078 l 597 1078 l 597 997 l 569 968 l 569 940 l 540 940 l 513 911 l 374 911 l 290 997 l 258 997 l 172 911 l 119 911 l 119 993 l 149 1021 l 149 1050 l 176 1050 l 206 1078 l 206 1078 z "},"ç":{"ha":719,"x_min":21,"x_max":668,"o":"m 176 964 l 217 936 l 217 879 l 243 851 l 243 594 l 263 567 l 360 624 l 417 681 l 469 681 l 526 624 l 556 624 l 583 594 l 668 594 l 668 542 l 640 542 l 583 485 l 583 142 l 611 114 l 611 85 l 640 32 l 499 32 l 360 -24 l 360 3 l 263 117 l 243 88 l 243 -224 l 217 -251 l 217 -281 l 176 -308 l 78 -224 l 50 -224 l 50 -171 l 163 -171 l 163 117 l 131 117 l 103 88 l 50 88 l 50 142 l 106 197 l 163 197 l 163 740 l 106 797 l 21 797 l 21 851 l 133 907 l 133 936 l 176 964 l 176 964 m 333 567 l 276 511 l 247 511 l 247 201 l 276 201 l 304 174 l 333 174 l 417 88 l 417 60 l 469 60 l 499 88 l 499 511 l 469 538 l 442 538 l 413 567 l 333 567 l 333 567 z "},"é":{"ha":719,"x_min":21,"x_max":668,"o":"m 149 851 l 188 824 l 188 794 l 217 767 l 217 174 l 188 144 l 188 114 l 300 114 l 403 57 l 474 142 l 474 713 l 360 713 l 360 767 l 389 767 l 417 794 l 446 794 l 517 851 l 611 767 l 640 767 l 640 713 l 583 713 l 583 114 l 640 57 l 668 57 l 668 3 l 640 3 l 583 -53 l 529 -53 l 488 60 l 385 -53 l 333 -53 l 276 3 l 131 3 l 74 -53 l 21 -53 l 21 28 l 106 114 l 106 344 l 92 372 l 74 344 l 74 315 l 21 315 l 21 397 l 106 482 l 106 713 l 21 713 l 21 767 l 50 767 l 149 851 l 149 851 m 446 1078 l 556 1078 l 556 1025 l 499 968 l 469 968 l 276 911 l 276 964 l 304 964 l 333 993 l 360 993 l 446 1078 l 446 1078 z "},"è":{"ha":719,"x_min":6,"x_max":683,"o":"m 163 851 l 201 824 l 201 767 l 229 738 l 229 567 l 247 538 l 263 567 l 290 567 l 431 710 l 513 710 l 626 594 l 683 482 l 683 258 l 513 88 l 403 88 l 374 117 l 346 117 l 263 201 l 263 231 l 247 258 l 229 231 l 229 32 l 201 3 l 201 -24 l 163 -53 l 63 32 l 6 32 l 6 85 l 119 85 l 119 258 l 88 258 l 60 231 l 6 231 l 6 283 l 63 340 l 119 340 l 119 713 l 6 713 l 6 767 l 63 767 l 163 851 l 163 851 m 374 594 l 290 511 l 263 511 l 233 482 l 233 315 l 258 315 l 258 344 l 344 428 l 374 428 l 374 397 l 346 368 l 346 231 l 403 174 l 513 174 l 597 258 l 597 397 l 540 511 l 456 594 l 374 594 l 374 594 z "},"ê":{"ha":719,"x_min":21,"x_max":668,"o":"m 149 851 l 188 824 l 188 794 l 217 767 l 217 174 l 188 144 l 188 114 l 300 114 l 403 57 l 474 142 l 474 713 l 360 713 l 360 767 l 389 767 l 417 794 l 446 794 l 517 851 l 611 767 l 640 767 l 640 713 l 583 713 l 583 114 l 640 57 l 668 57 l 668 3 l 640 3 l 583 -53 l 529 -53 l 488 60 l 385 -53 l 333 -53 l 276 3 l 131 3 l 74 -53 l 21 -53 l 21 28 l 106 114 l 106 344 l 92 372 l 74 344 l 74 315 l 21 315 l 21 397 l 106 482 l 106 713 l 21 713 l 21 767 l 50 767 l 149 851 l 149 851 m 304 1078 l 356 1078 l 413 1021 l 442 1021 l 469 993 l 556 993 l 556 940 l 526 911 l 417 911 l 389 940 l 360 940 l 304 997 l 300 997 l 106 911 l 106 964 l 133 964 l 247 1021 l 304 1078 l 304 1078 z "},"ë":{"ha":719,"x_min":21,"x_max":668,"o":"m 149 851 l 188 824 l 188 794 l 217 767 l 217 174 l 188 144 l 188 114 l 300 114 l 403 57 l 474 142 l 474 713 l 360 713 l 360 767 l 389 767 l 417 794 l 446 794 l 517 851 l 611 767 l 640 767 l 640 713 l 583 713 l 583 114 l 640 57 l 668 57 l 668 3 l 640 3 l 583 -53 l 529 -53 l 488 60 l 385 -53 l 333 -53 l 276 3 l 131 3 l 74 -53 l 21 -53 l 21 28 l 106 114 l 106 344 l 92 372 l 74 344 l 74 315 l 21 315 l 21 397 l 106 482 l 106 713 l 21 713 l 21 767 l 50 767 l 149 851 l 149 851 m 133 1078 l 243 1078 l 329 993 l 356 993 l 385 964 l 413 964 l 413 911 l 219 968 l 190 968 l 133 1025 l 133 1078 l 133 1078 z "},"í":{"ha":719,"x_min":21,"x_max":668,"o":"m 133 851 l 188 851 l 217 824 l 217 794 l 243 767 l 243 288 l 217 258 l 217 254 l 272 197 l 300 197 l 385 114 l 389 114 l 501 226 l 501 713 l 417 713 l 417 767 l 501 851 l 556 851 l 668 794 l 668 740 l 611 685 l 611 85 l 640 57 l 640 28 l 668 0 l 668 -137 l 556 -251 l 526 -251 l 499 -281 l 304 -281 l 276 -251 l 106 -167 l 106 -137 l 78 -110 l 78 0 l 106 28 l 160 28 l 160 0 l 188 -28 l 188 -57 l 243 -114 l 272 -114 l 300 -142 l 329 -142 l 488 -197 l 501 -171 l 529 -171 l 586 -114 l 586 -110 l 558 -81 l 558 -53 l 501 3 l 501 117 l 488 144 l 346 3 l 247 88 l 219 88 l 190 117 l 103 117 l 74 88 l 21 88 l 78 226 l 133 226 l 133 428 l 119 457 l 103 428 l 103 400 l 50 400 l 50 482 l 133 567 l 133 713 l 21 713 l 21 767 l 50 767 l 133 851 l 133 851 m 446 1078 l 556 1078 l 556 1025 l 499 968 l 469 968 l 276 911 l 276 964 l 304 964 l 333 993 l 360 993 l 446 1078 l 446 1078 z "},"ì":{"ha":719,"x_min":50,"x_max":640,"o":"m 163 681 l 217 651 l 217 624 l 243 594 l 243 197 l 329 114 l 360 114 l 389 142 l 501 197 l 501 542 l 389 542 l 389 594 l 501 651 l 501 681 l 556 651 l 556 624 l 583 594 l 583 85 l 611 57 l 611 28 l 640 0 l 640 -137 l 611 -167 l 611 -194 l 556 -251 l 526 -251 l 499 -281 l 360 -281 l 247 -167 l 243 -167 l 188 -224 l 133 -224 l 133 -142 l 190 -85 l 300 -85 l 329 -114 l 356 -114 l 385 -142 l 385 -171 l 442 -226 l 474 -226 l 529 -171 l 529 -114 l 558 -85 l 558 -53 l 529 -24 l 529 3 l 501 32 l 501 117 l 469 117 l 442 88 l 413 88 l 318 3 l 133 88 l 78 88 l 78 142 l 163 226 l 163 542 l 50 542 l 50 594 l 163 651 l 163 681 l 163 681 m 446 964 l 556 964 l 556 911 l 526 883 l 526 854 l 499 826 l 469 826 l 276 768 l 276 824 l 304 824 l 333 851 l 360 851 l 446 936 l 446 964 l 446 964 z "},"î":{"ha":719,"x_min":78,"x_max":611,"o":"m 106 1021 l 611 1021 l 611 968 l 583 940 l 78 940 l 78 993 l 106 1021 l 106 1021 z "},"ï":{"ha":732,"x_min":299,"x_max":576,"o":"m 467 1078 l 576 1078 l 576 1025 l 519 968 l 492 968 l 299 911 l 299 964 l 326 964 l 354 993 l 382 993 l 467 1078 l 467 1078 z "},"ñ":{"ha":719,"x_min":50,"x_max":640,"o":"m 333 710 l 385 710 l 385 425 l 558 425 l 586 454 l 640 454 l 640 400 l 583 344 l 385 344 l 385 114 l 558 114 l 586 142 l 640 142 l 640 88 l 583 32 l 131 32 l 103 3 l 50 3 l 50 57 l 106 114 l 304 114 l 304 344 l 131 344 l 103 315 l 50 315 l 50 368 l 106 425 l 304 425 l 304 681 l 333 710 l 333 710 z "},"ó":{"ha":719,"x_min":78,"x_max":611,"o":"m 333 311 l 413 311 l 442 283 l 469 283 l 499 231 l 442 231 l 442 57 l 501 57 l 501 114 l 556 114 l 556 60 l 526 32 l 526 3 l 499 -24 l 442 -24 l 442 -85 l 526 -85 l 526 -137 l 469 -137 l 442 -167 l 389 -167 l 360 -137 l 276 -137 l 276 -85 l 360 -85 l 360 -24 l 106 -24 l 106 85 l 333 311 l 333 311 m 356 254 l 163 60 l 356 60 l 356 254 l 356 254 m 78 454 l 611 454 l 611 400 l 78 400 l 78 454 l 78 454 m 333 1021 l 385 1021 l 499 964 l 526 936 l 526 826 l 499 797 l 499 794 l 556 738 l 556 628 l 499 571 l 469 571 l 442 542 l 219 542 l 190 571 l 163 571 l 133 599 l 133 710 l 188 738 l 188 710 l 272 624 l 329 624 l 356 594 l 389 594 l 474 681 l 474 713 l 417 713 l 389 740 l 333 740 l 333 794 l 446 836 l 389 940 l 356 940 l 300 883 l 190 883 l 163 911 l 163 993 l 217 964 l 247 964 l 276 993 l 304 993 l 333 1021 l 333 1021 z "},"ò":{"ha":719,"x_min":-8,"x_max":697,"o":"m -8 -226 l 697 -226 l 697 -308 l -8 -308 l -8 -226 l -8 -226 m -8 -57 l 697 -57 l 697 -137 l -8 -137 l -8 -57 l -8 -57 z "},"ô":{"ha":719,"x_min":21,"x_max":668,"o":"m 304 851 l 385 851 l 413 824 l 442 824 l 601 767 l 615 794 l 668 794 l 668 740 l 611 685 l 499 685 l 499 -167 l 160 -167 l 106 -194 l 106 -114 l 133 -85 l 163 -85 l 190 -57 l 276 -57 l 276 231 l 163 288 l 78 372 l 21 485 l 21 710 l 190 794 l 247 794 l 304 851 l 304 851 m 333 710 l 333 -53 l 442 -53 l 442 681 l 413 681 l 385 710 l 333 710 l 333 710 z "},"ö":{"ha":719,"x_min":21,"x_max":668,"o":"m 304 283 l 356 283 l 413 226 l 469 226 l 469 174 l 442 174 l 385 117 l 333 117 l 276 174 l 219 174 l 219 226 l 247 226 l 304 283 l 304 283 m 615 482 l 668 482 l 668 428 l 611 372 l 103 372 l 74 344 l 21 344 l 21 397 l 78 454 l 586 454 l 615 482 l 615 482 m 304 710 l 356 710 l 413 651 l 469 651 l 469 599 l 442 599 l 385 542 l 333 542 l 276 599 l 219 599 l 219 651 l 247 651 l 304 710 l 304 710 z "},"õ":{"ha":719,"x_min":89,"x_max":653,"o":"m 289 851 l 371 851 l 483 794 l 511 767 l 571 767 l 600 794 l 653 794 l 653 713 l 596 656 l 457 656 l 429 685 l 317 740 l 285 740 l 228 685 l 228 624 l 285 567 l 314 567 l 539 454 l 596 397 l 596 368 l 624 340 l 624 231 l 596 201 l 596 174 l 567 144 l 567 3 l 539 -24 l 539 -53 l 454 -137 l 426 -137 l 386 -167 l 260 -110 l 171 -110 l 143 -137 l 89 -137 l 89 -57 l 146 0 l 314 0 l 397 -85 l 400 -85 l 486 0 l 486 60 l 400 144 l 372 144 l 203 231 l 118 315 l 118 344 l 89 372 l 89 482 l 175 567 l 175 571 l 146 599 l 146 710 l 289 851 l 289 851 m 175 511 l 175 400 l 203 372 l 203 344 l 429 231 l 457 231 l 539 174 l 539 283 l 511 311 l 511 340 l 483 368 l 371 425 l 342 425 l 285 482 l 256 482 l 228 511 l 175 511 l 175 511 z "},"ú":{"ha":719,"x_min":190,"x_max":499,"o":"m 304 651 l 356 651 l 442 567 l 499 567 l 499 514 l 469 485 l 442 485 l 385 428 l 333 428 l 247 514 l 190 514 l 190 567 l 219 594 l 247 594 l 304 651 l 304 651 z "},"ù":{"ha":719,"x_min":50,"x_max":640,"o":"m 133 1078 l 188 1078 l 243 1021 l 300 1021 l 300 968 l 272 968 l 217 911 l 163 911 l 106 968 l 50 968 l 50 1021 l 78 1021 l 133 1078 l 133 1078 m 474 1078 l 526 1078 l 583 1021 l 640 1021 l 640 968 l 611 968 l 556 911 l 501 911 l 446 968 l 389 968 l 389 1021 l 417 1021 l 474 1078 l 474 1078 z "},"û":{"ha":719,"x_min":217,"x_max":525,"o":"m 372 907 l 411 879 l 411 851 l 439 824 l 439 397 l 525 397 l 400 315 l 360 344 l 303 344 l 274 397 l 360 397 l 360 797 l 217 797 l 217 851 l 303 851 l 372 907 l 372 907 z "},"ü":{"ha":719,"x_min":106,"x_max":583,"o":"m 304 907 l 356 907 l 526 824 l 556 794 l 556 713 l 469 639 l 526 594 l 556 594 l 583 567 l 583 457 l 469 344 l 442 344 l 413 315 l 247 315 l 219 344 l 190 344 l 133 400 l 133 428 l 106 457 l 106 538 l 133 567 l 133 594 l 188 594 l 188 511 l 300 397 l 417 397 l 446 425 l 501 425 l 501 457 l 474 485 l 474 514 l 389 599 l 304 599 l 304 651 l 389 651 l 446 710 l 446 768 l 389 826 l 356 826 l 329 797 l 300 797 l 272 768 l 163 768 l 106 851 l 190 851 l 219 879 l 276 879 l 304 907 l 304 907 z "},"†":{"ha":533,"x_min":0,"x_max":0,"o":""},"¢":{"ha":719,"x_min":61,"x_max":681,"o":"m 400 681 l 454 681 l 511 624 l 567 624 l 596 594 l 681 594 l 681 542 l 653 514 l 596 514 l 596 114 l 681 3 l 454 3 l 426 -24 l 371 -24 l 342 -53 l 289 -53 l 260 -24 l 203 -24 l 175 3 l 61 3 l 61 57 l 146 142 l 146 457 l 89 514 l 61 514 l 61 567 l 146 567 l 175 594 l 344 651 l 372 651 l 400 681 l 400 681 m 360 594 l 232 538 l 232 117 l 415 32 l 454 60 l 511 60 l 511 511 l 483 511 l 454 538 l 426 538 l 360 594 l 360 594 m 457 964 l 567 964 l 567 911 l 539 883 l 539 854 l 511 826 l 483 826 l 289 768 l 289 824 l 317 824 l 344 851 l 372 851 l 457 936 l 457 964 l 457 964 z "},"£":{"ha":719,"x_min":21,"x_max":668,"o":"m 133 681 l 188 681 l 243 567 l 243 85 l 300 85 l 346 28 l 501 197 l 501 485 l 446 542 l 360 542 l 360 594 l 417 594 l 474 651 l 474 681 l 526 681 l 583 567 l 583 114 l 640 57 l 668 57 l 668 3 l 640 3 l 574 -53 l 529 -24 l 529 32 l 501 60 l 501 88 l 488 117 l 329 -53 l 276 -53 l 247 -24 l 190 -24 l 163 3 l 78 3 l 78 57 l 163 142 l 163 485 l 106 542 l 21 542 l 21 594 l 78 594 l 133 651 l 133 681 l 133 681 m 446 964 l 556 964 l 556 911 l 526 883 l 526 854 l 499 826 l 469 826 l 276 768 l 276 824 l 304 824 l 333 851 l 360 851 l 446 936 l 446 964 l 446 964 z "},"§":{"ha":719,"x_min":78,"x_max":611,"o":"m 106 85 l 611 85 l 611 32 l 583 3 l 78 3 l 78 57 l 106 85 l 106 85 m 360 851 l 413 851 l 526 794 l 556 767 l 611 767 l 611 713 l 556 713 l 556 368 l 611 288 l 442 288 l 413 258 l 356 258 l 329 231 l 276 231 l 247 258 l 190 258 l 163 288 l 78 288 l 78 340 l 163 425 l 163 713 l 106 713 l 106 767 l 190 767 l 219 794 l 272 794 l 290 767 l 304 794 l 304 824 l 333 824 l 360 851 l 360 851 m 276 738 l 247 710 l 247 400 l 333 315 l 413 315 l 442 344 l 469 344 l 469 710 l 413 710 l 385 738 l 276 738 l 276 738 z "},"¶":{"ha":719,"x_min":21,"x_max":668,"o":"m 219 851 l 356 851 l 385 824 l 413 824 l 469 710 l 469 624 l 499 594 l 499 482 l 526 454 l 611 114 l 611 57 l 668 57 l 668 3 l 640 3 l 574 -53 l 529 -24 l 529 3 l 501 32 l 501 88 l 474 117 l 474 201 l 417 258 l 217 258 l 217 201 l 188 174 l 188 114 l 276 114 l 329 142 l 329 88 l 300 60 l 300 32 l 272 3 l 131 3 l 74 -53 l 21 -53 l 21 28 l 50 57 l 50 85 l 78 114 l 133 114 l 133 197 l 163 226 l 163 311 l 190 340 l 190 400 l 131 400 l 50 344 l 50 425 l 106 482 l 219 482 l 219 538 l 276 751 l 247 768 l 243 768 l 188 713 l 188 685 l 133 685 l 133 767 l 163 794 l 163 824 l 190 824 l 219 851 l 219 851 m 356 710 l 333 710 l 333 681 l 276 454 l 247 425 l 247 344 l 413 344 l 413 454 l 385 482 l 385 594 l 356 624 l 356 710 l 356 710 m 333 1078 l 385 1078 l 442 1021 l 469 1021 l 499 993 l 583 993 l 583 940 l 556 911 l 446 911 l 417 940 l 389 940 l 333 997 l 329 997 l 133 911 l 133 964 l 163 964 l 276 1021 l 333 1078 l 333 1078 z "},"ß":{"ha":719,"x_min":-8,"x_max":697,"o":"m -8 1078 l 697 1078 l 697 372 l -8 372 l -8 1078 l -8 1078 z "},"®":{"ha":719,"x_min":-8,"x_max":697,"o":"m 276 624 l 329 624 l 329 514 l 300 485 l 300 457 l 160 315 l 160 311 l 300 171 l 300 142 l 329 114 l 329 85 l 385 3 l 356 3 l 300 -53 l 247 -53 l 247 -24 l 219 3 l 219 60 l 163 117 l 163 144 l 50 258 l 21 258 l -8 297 l 21 340 l 247 511 l 247 538 l 276 567 l 276 624 l 276 624 m 586 624 l 640 624 l 640 514 l 611 485 l 611 457 l 469 315 l 469 311 l 611 171 l 611 142 l 640 114 l 640 85 l 697 3 l 668 3 l 611 -53 l 558 -53 l 558 -24 l 529 3 l 529 60 l 474 117 l 474 144 l 360 258 l 333 258 l 304 297 l 333 340 l 558 511 l 558 538 l 586 567 l 586 624 l 586 624 z "},"©":{"ha":719,"x_min":-8,"x_max":697,"o":"m 219 767 l 469 767 l 583 710 l 640 651 l 697 538 l 697 231 l 640 117 l 583 60 l 556 60 l 526 32 l 499 32 l 469 3 l 219 3 l 106 60 l 50 117 l -8 231 l -8 538 l 50 651 l 106 710 l 219 767 l 219 767 m 247 710 l 219 681 l 190 681 l 106 594 l 106 567 l 78 538 l 78 231 l 106 201 l 106 174 l 190 88 l 219 88 l 247 60 l 442 60 l 469 88 l 499 88 l 583 174 l 583 201 l 611 231 l 611 538 l 583 567 l 583 594 l 499 681 l 469 681 l 442 710 l 247 710 l 247 710 m 190 594 l 442 594 l 499 538 l 499 428 l 469 400 l 442 400 l 413 382 l 469 283 l 526 226 l 526 174 l 446 174 l 417 201 l 333 372 l 272 372 l 272 174 l 190 174 l 190 594 l 190 594 m 276 538 l 276 428 l 385 428 l 413 457 l 413 511 l 385 538 l 276 538 l 276 538 z "},"™":{"ha":533,"x_min":0,"x_max":0,"o":""},"´":{"ha":719,"x_min":3,"x_max":394,"o":"m 314 1078 l 394 1078 l 394 -336 l 314 -336 l 314 315 l 3 315 l 3 397 l 314 397 l 314 1078 l 314 1078 z "},"¨":{"ha":719,"x_min":118,"x_max":624,"o":"m 344 567 l 426 567 l 426 538 l 454 511 l 454 457 l 426 457 l 371 400 l 342 400 l 285 344 l 285 315 l 256 288 l 256 258 l 228 231 l 228 114 l 285 57 l 314 57 l 342 28 l 344 28 l 429 114 l 457 114 l 486 142 l 596 142 l 624 114 l 624 60 l 596 60 l 567 32 l 539 32 l 483 -24 l 454 -24 l 415 -53 l 118 88 l 118 254 l 175 368 l 344 482 l 372 496 l 344 514 l 344 567 l 344 567 m 344 879 l 397 879 l 483 794 l 539 794 l 539 740 l 511 740 l 454 685 l 426 685 l 397 656 l 344 656 l 260 740 l 203 740 l 203 794 l 232 794 l 289 851 l 317 851 l 344 879 l 344 879 z "},"≠":{"ha":533,"x_min":0,"x_max":0,"o":""},"Æ":{"ha":719,"x_min":50,"x_max":640,"o":"m 276 681 l 329 681 l 611 525 l 556 457 l 556 114 l 640 14 l 583 -53 l 529 -53 l 474 3 l 474 32 l 460 60 l 290 -53 l 50 3 l 50 57 l 133 142 l 133 258 l 78 340 l 219 340 l 247 368 l 304 368 l 417 425 l 474 468 l 446 485 l 276 571 l 243 571 l 119 525 l 163 594 l 190 594 l 276 681 l 276 681 m 469 397 l 333 340 l 304 311 l 247 311 l 219 283 l 219 88 l 346 32 l 385 60 l 413 60 l 469 117 l 469 397 l 469 397 m 219 936 l 356 936 l 442 851 l 474 851 l 558 936 l 611 936 l 611 854 l 583 826 l 583 797 l 556 797 l 526 768 l 389 768 l 304 854 l 272 854 l 188 768 l 133 768 l 133 851 l 163 879 l 163 907 l 190 907 l 219 936 l 219 936 z "},"Ø":{"ha":719,"x_min":50,"x_max":640,"o":"m 558 851 l 611 851 l 611 797 l 583 768 l 583 740 l 556 713 l 526 713 l 499 685 l 413 685 l 413 628 l 385 599 l 385 231 l 356 201 l 356 144 l 329 126 l 356 114 l 501 114 l 558 171 l 611 171 l 611 117 l 583 88 l 583 60 l 556 32 l 526 32 l 499 3 l 188 3 l 131 -53 l 78 -53 l 133 85 l 247 142 l 247 171 l 276 197 l 276 567 l 304 594 l 304 651 l 333 667 l 304 685 l 188 685 l 131 628 l 78 628 l 133 767 l 163 767 l 190 794 l 501 794 l 558 851 l 558 851 m 133 1078 l 188 1078 l 243 1021 l 300 1021 l 300 968 l 272 968 l 217 911 l 163 911 l 106 968 l 50 968 l 50 1021 l 78 1021 l 133 1078 l 133 1078 m 474 1078 l 526 1078 l 583 1021 l 640 1021 l 640 968 l 611 968 l 556 911 l 501 911 l 446 968 l 389 968 l 389 1021 l 417 1021 l 474 1078 l 474 1078 z "},"∞":{"ha":533,"x_min":0,"x_max":0,"o":""},"±":{"ha":719,"x_min":63,"x_max":626,"o":"m 92 -114 l 229 -114 l 258 -142 l 258 -251 l 229 -281 l 92 -281 l 63 -251 l 63 -142 l 92 -114 l 92 -114 m 431 -114 l 597 -114 l 626 -142 l 626 -251 l 597 -281 l 431 -281 l 403 -251 l 403 -142 l 431 -114 l 431 -114 m 92 171 l 229 171 l 258 142 l 258 32 l 229 3 l 92 3 l 63 32 l 63 142 l 92 171 l 92 171 m 431 171 l 597 171 l 626 142 l 626 32 l 597 3 l 431 3 l 403 32 l 403 142 l 431 171 l 431 171 m 92 454 l 229 454 l 258 425 l 258 315 l 229 288 l 92 288 l 63 315 l 63 425 l 92 454 l 92 454 m 431 454 l 597 454 l 626 425 l 626 315 l 597 288 l 431 288 l 403 315 l 403 425 l 431 454 l 431 454 m 92 738 l 229 738 l 258 710 l 258 599 l 229 571 l 92 571 l 63 599 l 63 710 l 92 738 l 92 738 m 431 738 l 597 738 l 626 710 l 626 599 l 597 571 l 431 571 l 403 599 l 403 710 l 431 738 l 431 738 m 92 1021 l 229 1021 l 258 993 l 258 883 l 229 854 l 92 854 l 63 883 l 63 993 l 92 1021 l 92 1021 m 431 1021 l 597 1021 l 626 993 l 626 883 l 597 854 l 431 854 l 403 883 l 403 993 l 431 1021 l 431 1021 z "},"≤":{"ha":533,"x_min":0,"x_max":0,"o":""},"≥":{"ha":533,"x_min":0,"x_max":0,"o":""},"¥":{"ha":719,"x_min":21,"x_max":668,"o":"m 78 851 l 160 851 l 188 824 l 488 197 l 501 226 l 501 713 l 442 713 l 403 694 l 446 824 l 586 824 l 615 851 l 668 851 l 668 797 l 640 768 l 640 740 l 611 713 l 556 713 l 556 57 l 574 28 l 586 57 l 668 57 l 574 -53 l 446 3 l 176 571 l 160 542 l 160 114 l 219 114 l 272 142 l 272 88 l 243 60 l 243 32 l 217 3 l 131 3 l 74 -53 l 21 -53 l 21 28 l 50 57 l 50 85 l 106 142 l 106 344 l 92 372 l 74 344 l 74 315 l 21 315 l 21 425 l 50 454 l 106 454 l 106 713 l 21 713 l 21 794 l 78 851 l 78 851 m 190 1078 l 329 1078 l 413 993 l 446 993 l 529 1078 l 583 1078 l 583 997 l 556 968 l 556 940 l 526 940 l 499 911 l 360 911 l 276 997 l 243 997 l 160 911 l 106 911 l 106 993 l 133 1021 l 133 1050 l 163 1050 l 190 1078 l 190 1078 z "},"µ":{"ha":719,"x_min":21,"x_max":668,"o":"m 219 851 l 356 851 l 385 824 l 413 824 l 469 710 l 469 624 l 499 594 l 499 482 l 526 454 l 611 114 l 611 57 l 668 57 l 668 3 l 640 3 l 574 -53 l 529 -24 l 529 3 l 501 32 l 501 88 l 474 117 l 474 201 l 417 258 l 217 258 l 217 201 l 188 174 l 188 114 l 276 114 l 329 142 l 329 88 l 300 60 l 300 32 l 272 3 l 131 3 l 74 -53 l 21 -53 l 21 28 l 50 57 l 50 85 l 78 114 l 133 114 l 133 197 l 163 226 l 163 311 l 190 340 l 190 400 l 131 400 l 50 344 l 50 425 l 106 482 l 219 482 l 219 538 l 276 751 l 247 768 l 243 768 l 188 713 l 188 685 l 133 685 l 133 767 l 163 794 l 163 824 l 190 824 l 219 851 l 219 851 m 356 710 l 333 710 l 333 681 l 276 454 l 247 425 l 247 344 l 413 344 l 413 454 l 385 482 l 385 594 l 356 624 l 356 710 l 356 710 m 446 1078 l 556 1078 l 556 1025 l 499 968 l 469 968 l 276 911 l 276 964 l 304 964 l 333 993 l 360 993 l 446 1078 l 446 1078 z "},"∂":{"ha":533,"x_min":0,"x_max":0,"o":""},"Σ":{"ha":533,"x_min":0,"x_max":0,"o":""},"∏":{"ha":533,"x_min":0,"x_max":0,"o":""},"π":{"ha":533,"x_min":0,"x_max":0,"o":""},"∫":{"ha":533,"x_min":0,"x_max":0,"o":""},"ª":{"ha":719,"x_min":78,"x_max":611,"o":"m 78 482 l 611 482 l 611 231 l 501 231 l 501 428 l 78 428 l 78 482 l 78 482 z "},"º":{"ha":719,"x_min":203,"x_max":539,"o":"m 203 1078 l 285 1078 l 285 -336 l 203 -336 l 203 1078 l 203 1078 m 457 1078 l 539 1078 l 539 -336 l 457 -336 l 457 1078 l 457 1078 z "},"Ω":{"ha":533,"x_min":0,"x_max":0,"o":""},"æ":{"ha":719,"x_min":21,"x_max":668,"o":"m 133 681 l 188 681 l 243 567 l 243 171 l 356 57 l 360 57 l 501 197 l 501 485 l 446 542 l 360 542 l 360 594 l 417 594 l 474 651 l 474 681 l 526 681 l 583 567 l 583 114 l 640 57 l 668 57 l 668 3 l 640 3 l 574 -53 l 529 -24 l 529 32 l 501 60 l 501 88 l 488 117 l 318 -53 l 263 3 l 243 -24 l 243 -137 l 188 -251 l 133 -251 l 78 -194 l 50 -194 l 50 -142 l 106 -142 l 163 -85 l 163 485 l 106 542 l 21 542 l 21 594 l 78 594 l 133 651 l 133 681 l 133 681 z "},"ø":{"ha":719,"x_min":133,"x_max":556,"o":"m 276 907 l 413 907 l 442 879 l 469 879 l 526 824 l 526 794 l 556 767 l 556 656 l 526 628 l 526 599 l 469 542 l 442 542 l 413 514 l 276 514 l 247 542 l 219 542 l 163 599 l 163 628 l 133 656 l 133 767 l 163 794 l 163 824 l 219 879 l 247 879 l 276 907 l 276 907 m 276 851 l 219 794 l 219 656 l 247 628 l 247 599 l 276 599 l 304 571 l 413 571 l 469 628 l 469 767 l 442 794 l 442 824 l 413 824 l 385 851 l 276 851 l 276 851 z "},"¿":{"ha":719,"x_min":3,"x_max":394,"o":"m 3 397 l 394 397 l 394 -336 l 314 -336 l 314 315 l 3 315 l 3 397 l 3 397 z "},"¡":{"ha":719,"x_min":104,"x_max":639,"o":"m 331 681 l 382 681 l 382 651 l 468 567 l 496 567 l 496 514 l 411 514 l 411 57 l 496 57 l 525 28 l 639 28 l 639 -24 l 439 -24 l 411 -53 l 331 -53 l 303 -24 l 104 -24 l 104 28 l 246 28 l 274 57 l 331 57 l 331 514 l 104 514 l 104 567 l 189 567 l 217 594 l 246 594 l 331 681 l 331 681 m 443 964 l 553 964 l 553 911 l 525 883 l 525 854 l 496 826 l 468 826 l 274 768 l 274 824 l 303 824 l 331 851 l 360 851 l 443 936 l 443 964 l 443 964 z "},"¬":{"ha":533,"x_min":0,"x_max":0,"o":""},"√":{"ha":533,"x_min":0,"x_max":0,"o":""},"ƒ":{"ha":533,"x_min":0,"x_max":0,"o":""},"≈":{"ha":533,"x_min":0,"x_max":0,"o":""},"∆":{"ha":533,"x_min":0,"x_max":0,"o":""},"«":{"ha":719,"x_min":78,"x_max":611,"o":"m 333 311 l 385 311 l 556 226 l 556 88 l 499 32 l 442 32 l 413 3 l 329 3 l 300 -24 l 243 -24 l 188 -69 l 217 -85 l 529 -85 l 529 -28 l 583 -28 l 583 -81 l 556 -110 l 556 -137 l 526 -167 l 133 -167 l 133 -57 l 219 28 l 276 28 l 304 57 l 474 142 l 474 174 l 417 231 l 385 231 l 356 201 l 329 201 l 300 174 l 190 174 l 163 201 l 163 283 l 217 254 l 247 254 l 276 283 l 304 283 l 333 311 l 333 311 m 78 454 l 611 454 l 611 400 l 78 400 l 78 454 l 78 454 m 333 1021 l 385 1021 l 385 993 l 413 964 l 413 624 l 499 624 l 499 571 l 442 571 l 413 542 l 333 542 l 304 571 l 247 571 l 247 624 l 333 624 l 333 911 l 190 911 l 190 964 l 276 964 l 333 1021 l 333 1021 z "},"»":{"ha":732,"x_min":-3,"x_max":532,"o":"m -3 538 l 532 538 l 532 -336 l 450 -336 l 450 457 l -3 457 l -3 538 l -3 538 m -3 283 l 276 283 l 276 -336 l 197 -336 l 197 201 l -3 201 l -3 283 l -3 283 z "},"…":{"ha":533,"x_min":0,"x_max":0,"o":""},"À":{"ha":719,"x_min":321,"x_max":713,"o":"m 321 1078 l 401 1078 l 401 397 l 713 397 l 713 315 l 321 315 l 321 1078 l 321 1078 z "},"Ã":{"ha":719,"x_min":321,"x_max":713,"o":"m 321 1078 l 401 1078 l 401 397 l 713 397 l 713 315 l 401 315 l 401 -336 l 321 -336 l 321 1078 l 321 1078 z "},"Õ":{"ha":719,"x_min":104,"x_max":639,"o":"m 331 681 l 382 681 l 382 651 l 468 567 l 496 567 l 496 514 l 411 514 l 411 57 l 496 57 l 525 28 l 639 28 l 639 -24 l 439 -24 l 411 -53 l 331 -53 l 303 -24 l 104 -24 l 104 28 l 246 28 l 274 57 l 331 57 l 331 514 l 104 514 l 104 567 l 189 567 l 217 594 l 246 594 l 331 681 l 331 681 z "},"Œ":{"ha":533,"x_min":0,"x_max":0,"o":""},"œ":{"ha":533,"x_min":0,"x_max":0,"o":""},"—":{"ha":719,"x_min":21,"x_max":668,"o":"m 133 681 l 188 681 l 243 567 l 243 85 l 300 85 l 346 28 l 501 197 l 501 485 l 446 542 l 360 542 l 360 594 l 417 594 l 474 651 l 474 681 l 526 681 l 583 567 l 583 114 l 640 57 l 668 57 l 668 3 l 640 3 l 574 -53 l 529 -24 l 529 32 l 501 60 l 501 88 l 488 117 l 329 -53 l 276 -53 l 247 -24 l 190 -24 l 163 3 l 78 3 l 78 57 l 163 142 l 163 485 l 106 542 l 21 542 l 21 594 l 78 594 l 133 651 l 133 681 l 133 681 m 133 964 l 243 964 l 243 936 l 329 851 l 356 851 l 385 824 l 413 824 l 413 768 l 219 826 l 190 826 l 133 964 l 133 964 z "},"“":{"ha":719,"x_min":61,"x_max":681,"o":"m 400 681 l 454 681 l 511 624 l 567 624 l 596 594 l 681 594 l 681 542 l 653 514 l 596 514 l 596 114 l 681 3 l 454 3 l 426 -24 l 371 -24 l 342 -53 l 289 -53 l 260 -24 l 203 -24 l 175 3 l 61 3 l 61 57 l 146 142 l 146 457 l 89 514 l 61 514 l 61 567 l 146 567 l 175 594 l 344 651 l 372 651 l 400 681 l 400 681 m 360 594 l 232 538 l 232 117 l 415 32 l 454 60 l 511 60 l 511 511 l 483 511 l 454 538 l 426 538 l 360 594 l 360 594 m 344 964 l 397 964 l 483 879 l 511 879 l 539 851 l 596 851 l 596 797 l 567 768 l 457 768 l 429 797 l 400 797 l 344 854 l 342 854 l 146 768 l 146 824 l 175 824 l 203 851 l 232 851 l 344 964 l 344 964 z "},"”":{"ha":719,"x_min":61,"x_max":681,"o":"m 400 681 l 454 681 l 511 624 l 567 624 l 596 594 l 681 594 l 681 542 l 653 514 l 596 514 l 596 114 l 681 3 l 454 3 l 426 -24 l 371 -24 l 342 -53 l 289 -53 l 260 -24 l 203 -24 l 175 3 l 61 3 l 61 57 l 146 142 l 146 457 l 89 514 l 61 514 l 61 567 l 146 567 l 175 594 l 344 651 l 372 651 l 400 681 l 400 681 m 360 594 l 232 538 l 232 117 l 415 32 l 454 60 l 511 60 l 511 511 l 483 511 l 454 538 l 426 538 l 360 594 l 360 594 m 146 936 l 199 936 l 256 879 l 314 879 l 314 826 l 285 826 l 228 768 l 175 768 l 118 826 l 61 826 l 61 879 l 89 879 l 146 936 l 146 936 m 486 936 l 539 936 l 596 879 l 653 879 l 653 826 l 624 826 l 567 768 l 514 768 l 457 826 l 400 826 l 400 879 l 429 879 l 486 936 l 486 936 z "},"‘":{"ha":719,"x_min":-8,"x_max":697,"o":"m 163 681 l 217 681 l 329 567 l 333 567 l 446 681 l 499 681 l 499 651 l 556 538 l 668 425 l 697 425 l 697 372 l 668 372 l 442 258 l 385 201 l 385 114 l 442 57 l 469 57 l 499 28 l 501 28 l 697 114 l 697 60 l 668 60 l 556 3 l 499 -53 l 417 -53 l 389 -24 l 290 32 l 217 -53 l 163 -53 l -8 3 l -8 57 l 21 85 l 21 288 l -8 340 l 78 340 l 106 368 l 163 368 l 190 397 l 219 397 l 276 454 l 276 457 l 163 571 l 131 571 l 74 514 l 21 514 l 163 681 l 163 681 m 300 397 l 219 340 l 106 283 l 106 60 l 133 60 l 163 32 l 243 32 l 300 88 l 300 397 l 300 397 m 442 567 l 389 538 l 389 288 l 583 382 l 442 538 l 442 567 l 442 567 z "},"’":{"ha":719,"x_min":-8,"x_max":697,"o":"m 219 851 l 329 851 l 374 794 l 417 851 l 499 851 l 526 824 l 643 824 l 697 851 l 697 768 l 640 713 l 501 713 l 474 740 l 442 740 l 442 482 l 558 482 l 640 538 l 640 457 l 583 400 l 442 400 l 442 114 l 615 114 l 697 171 l 697 88 l 668 60 l 668 32 l 640 3 l 356 3 l 276 -53 l 276 28 l 304 57 l 304 85 l 360 142 l 360 258 l 160 258 l 160 174 l 131 144 l 131 114 l 190 114 l 219 142 l 272 142 l 272 88 l 243 60 l 243 32 l 217 3 l 74 3 l -8 -53 l -8 28 l 21 57 l 21 85 l 78 142 l 78 171 l 106 197 l 163 368 l 163 400 l 103 400 l 74 372 l 21 372 l 21 425 l 78 482 l 163 482 l 247 722 l 219 740 l 217 740 l 133 685 l 133 794 l 163 824 l 190 824 l 219 851 l 219 851 m 304 710 l 304 681 l 276 651 l 276 594 l 219 368 l 190 315 l 356 315 l 356 710 l 304 710 l 304 710 z "},"÷":{"ha":533,"x_min":0,"x_max":0,"o":""},"◊":{"ha":533,"x_min":0,"x_max":0,"o":""},"ÿ":{"ha":533,"x_min":0,"x_max":0,"o":""},"Ÿ":{"ha":533,"x_min":0,"x_max":0,"o":""},"∕":{"ha":719,"x_min":106,"x_max":583,"o":"m 417 993 l 583 993 l 583 940 l 556 911 l 556 883 l 243 -53 l 217 -81 l 217 -85 l 272 -167 l 106 -167 l 106 -114 l 133 -85 l 474 922 l 417 993 l 417 993 z "},"¤":{"ha":719,"x_min":61,"x_max":681,"o":"m 189 681 l 228 651 l 274 482 l 429 651 l 429 681 l 483 681 l 567 594 l 596 594 l 624 567 l 681 567 l 681 514 l 653 485 l 596 485 l 596 85 l 653 28 l 681 28 l 681 -24 l 653 -24 l 624 -53 l 571 -53 l 543 -24 l 543 3 l 514 32 l 514 457 l 415 571 l 256 400 l 256 85 l 314 28 l 371 28 l 371 -24 l 285 -24 l 256 -53 l 175 -53 l 146 -24 l 61 -24 l 61 28 l 118 28 l 175 85 l 175 514 l 61 514 l 61 567 l 89 567 l 146 624 l 146 651 l 189 681 l 189 681 m 232 936 l 371 936 l 454 851 l 486 851 l 571 936 l 624 936 l 624 854 l 596 826 l 596 797 l 567 797 l 539 768 l 400 768 l 317 854 l 285 854 l 199 768 l 146 768 l 146 851 l 175 879 l 175 907 l 203 907 l 232 936 l 232 936 z "},"‹":{"ha":719,"x_min":92,"x_max":597,"o":"m 517 767 l 569 767 l 569 685 l 540 656 l 540 628 l 400 485 l 371 485 l 258 382 l 371 283 l 400 283 l 483 197 l 483 171 l 597 42 l 569 3 l 540 3 l 501 -24 l 431 32 l 431 60 l 206 288 l 92 344 l 92 397 l 119 397 l 233 454 l 517 738 l 517 767 l 517 767 z "},"›":{"ha":719,"x_min":133,"x_max":610,"o":"m 189 767 l 243 767 l 243 738 l 271 710 l 271 681 l 382 567 l 411 567 l 525 454 l 582 454 l 610 400 l 582 400 l 553 372 l 525 372 l 439 288 l 411 288 l 214 88 l 214 60 l 186 32 l 186 3 l 133 -24 l 133 85 l 161 114 l 161 142 l 331 311 l 360 311 l 443 382 l 386 428 l 360 428 l 331 457 l 303 457 l 189 571 l 189 599 l 133 656 l 133 710 l 189 767 l 189 767 z "},"":{"ha":533,"x_min":0,"x_max":0,"o":""},"":{"ha":533,"x_min":0,"x_max":0,"o":""},"‡":{"ha":533,"x_min":0,"x_max":0,"o":""},"∙":{"ha":719,"x_min":21,"x_max":668,"o":"m 219 851 l 356 851 l 385 824 l 413 824 l 469 710 l 469 624 l 499 594 l 499 482 l 526 454 l 611 114 l 611 57 l 668 57 l 668 3 l 640 3 l 574 -53 l 529 -24 l 529 3 l 501 32 l 501 88 l 474 117 l 474 201 l 417 258 l 217 258 l 217 201 l 188 174 l 188 114 l 276 114 l 329 142 l 329 88 l 300 60 l 300 32 l 272 3 l 131 3 l 74 -53 l 21 -53 l 21 28 l 50 57 l 50 85 l 78 114 l 133 114 l 133 197 l 163 226 l 163 311 l 190 340 l 190 400 l 131 400 l 50 344 l 50 425 l 106 482 l 219 482 l 219 538 l 276 751 l 247 768 l 243 768 l 188 713 l 188 685 l 133 685 l 133 767 l 163 794 l 163 824 l 190 824 l 219 851 l 219 851 m 356 710 l 333 710 l 333 681 l 276 454 l 247 425 l 247 344 l 413 344 l 413 454 l 385 482 l 385 594 l 356 624 l 356 710 l 356 710 m 133 1078 l 243 1078 l 329 993 l 356 993 l 385 964 l 413 964 l 413 911 l 219 968 l 190 968 l 133 1025 l 133 1078 l 133 1078 z "},"‚":{"ha":533,"x_min":0,"x_max":0,"o":""},"„":{"ha":533,"x_min":0,"x_max":0,"o":""},"‰":{"ha":533,"x_min":0,"x_max":0,"o":""},"Â":{"ha":719,"x_min":-8,"x_max":697,"o":"m -8 397 l 697 397 l 697 315 l 385 315 l 385 -336 l 304 -336 l 304 315 l -8 315 l -8 397 l -8 397 z "},"Ê":{"ha":719,"x_min":-8,"x_max":697,"o":"m -8 283 l 697 283 l 697 201 l -8 201 l -8 283 l -8 283 m 190 1078 l 272 1078 l 272 457 l -8 457 l -8 538 l 190 538 l 190 1078 l 190 1078 m 446 1078 l 526 1078 l 526 538 l 697 538 l 697 457 l 446 457 l 446 1078 l 446 1078 z "},"Á":{"ha":719,"x_min":-8,"x_max":697,"o":"m 304 1078 l 385 1078 l 385 397 l 697 397 l 697 315 l -8 315 l -8 397 l 304 397 l 304 1078 l 304 1078 z "},"Ë":{"ha":719,"x_min":-8,"x_max":697,"o":"m -8 283 l 272 283 l 272 -336 l 190 -336 l 190 201 l -8 201 l -8 283 l -8 283 m 446 283 l 697 283 l 697 201 l 526 201 l 526 -336 l 446 -336 l 446 283 l 446 283 m -8 538 l 697 538 l 697 457 l -8 457 l -8 538 l -8 538 z "},"È":{"ha":732,"x_min":211,"x_max":717,"o":"m 211 1078 l 292 1078 l 292 283 l 717 283 l 717 201 l 211 201 l 211 1078 l 211 1078 m 465 1078 l 547 1078 l 547 538 l 717 538 l 717 457 l 465 457 l 465 1078 l 465 1078 z "},"Í":{"ha":719,"x_min":-8,"x_max":697,"o":"m -8 283 l 697 283 l 697 201 l -8 201 l -8 283 l -8 283 m -8 538 l 697 538 l 697 457 l -8 457 l -8 538 l -8 538 z "},"Î":{"ha":719,"x_min":-8,"x_max":697,"o":"m -8 283 l 272 283 l 272 -336 l 190 -336 l 190 201 l -8 201 l -8 283 l -8 283 m 446 283 l 697 283 l 697 201 l 526 201 l 526 -336 l 446 -336 l 446 283 l 446 283 m 190 1078 l 272 1078 l 272 457 l -8 457 l -8 538 l 190 538 l 190 1078 l 190 1078 m 446 1078 l 526 1078 l 526 538 l 697 538 l 697 457 l 446 457 l 446 1078 l 446 1078 z "},"Ï":{"ha":719,"x_min":21,"x_max":668,"o":"m 78 710 l 160 710 l 188 681 l 188 651 l 206 624 l 247 681 l 413 681 l 442 651 l 469 651 l 499 624 l 529 624 l 586 681 l 586 710 l 668 710 l 668 628 l 611 571 l 556 571 l 556 511 l 583 482 l 583 315 l 556 288 l 556 254 l 586 254 l 615 283 l 668 283 l 668 174 l 640 174 l 611 144 l 529 144 l 501 174 l 501 201 l 488 231 l 442 174 l 276 174 l 247 201 l 219 201 l 190 231 l 160 231 l 103 174 l 103 144 l 21 144 l 21 226 l 78 283 l 133 283 l 133 344 l 106 372 l 106 538 l 133 567 l 133 599 l 103 599 l 74 571 l 21 571 l 21 681 l 50 681 l 78 710 l 78 710 m 276 594 l 247 567 l 219 567 l 190 538 l 190 400 l 219 372 l 219 344 l 304 258 l 413 258 l 442 288 l 469 288 l 499 315 l 499 454 l 469 482 l 469 511 l 385 594 l 276 594 l 276 594 z "},"Ì":{"ha":732,"x_min":211,"x_max":717,"o":"m 211 1078 l 292 1078 l 292 -336 l 211 -336 l 211 1078 l 211 1078 m 465 283 l 717 283 l 717 201 l 547 201 l 547 -336 l 465 -336 l 465 283 l 465 283 m 465 1078 l 547 1078 l 547 538 l 717 538 l 717 457 l 465 457 l 465 1078 l 465 1078 z "},"Ó":{"ha":719,"x_min":21,"x_max":668,"o":"m 304 851 l 413 851 l 442 824 l 586 824 l 615 851 l 668 851 l 668 797 l 640 768 l 640 740 l 611 740 l 583 713 l 417 713 l 389 740 l 333 740 l 318 768 l 272 713 l 272 454 l 474 454 l 501 482 l 556 482 l 556 428 l 469 344 l 333 344 l 304 372 l 272 372 l 272 201 l 243 174 l 243 144 l 217 126 l 243 114 l 558 114 l 615 171 l 668 171 l 668 117 l 640 88 l 640 60 l 611 32 l 583 32 l 556 3 l 160 3 l 103 -53 l 50 -53 l 106 85 l 163 85 l 163 344 l 149 372 l 103 315 l 103 288 l 50 288 l 50 368 l 106 425 l 163 425 l 163 599 l 133 639 l 190 694 l 163 713 l 131 713 l 74 656 l 21 656 l 78 794 l 106 794 l 133 824 l 217 824 l 243 794 l 247 794 l 304 851 l 304 851 m 133 1078 l 188 1078 l 243 1021 l 300 1021 l 300 968 l 272 968 l 217 911 l 163 911 l 106 968 l 50 968 l 50 1021 l 78 1021 l 133 1078 l 133 1078 m 474 1078 l 526 1078 l 583 1021 l 640 1021 l 640 968 l 611 968 l 556 911 l 501 911 l 446 968 l 389 968 l 389 1021 l 417 1021 l 474 1078 l 474 1078 z "},"Ô":{"ha":719,"x_min":21,"x_max":668,"o":"m 304 851 l 413 851 l 442 824 l 586 824 l 615 851 l 668 851 l 668 797 l 640 768 l 640 740 l 611 740 l 583 713 l 417 713 l 389 740 l 333 740 l 318 768 l 272 713 l 272 454 l 474 454 l 501 482 l 556 482 l 556 428 l 469 344 l 333 344 l 304 372 l 272 372 l 272 201 l 243 174 l 243 144 l 217 126 l 243 114 l 558 114 l 615 171 l 668 171 l 668 117 l 640 88 l 640 60 l 611 32 l 583 32 l 556 3 l 160 3 l 103 -53 l 50 -53 l 106 85 l 163 85 l 163 344 l 149 372 l 103 315 l 103 288 l 50 288 l 50 368 l 106 425 l 163 425 l 163 599 l 133 639 l 190 694 l 163 713 l 131 713 l 74 656 l 21 656 l 78 794 l 106 794 l 133 824 l 217 824 l 243 794 l 247 794 l 304 851 l 304 851 m 163 1078 l 272 1078 l 356 993 l 385 993 l 413 964 l 442 964 l 442 911 l 247 968 l 219 968 l 163 1025 l 163 1078 l 163 1078 z "},"":{"ha":533,"x_min":0,"x_max":0,"o":""},"Ò":{"ha":533,"x_min":0,"x_max":0,"o":""},"Ú":{"ha":719,"x_min":321,"x_max":713,"o":"m 321 397 l 713 397 l 713 315 l 401 315 l 401 -336 l 321 -336 l 321 397 l 321 397 z "},"Û":{"ha":719,"x_min":-8,"x_max":697,"o":"m -8 1078 l 697 1078 l 697 -336 l -8 -336 l -8 1078 l -8 1078 z "},"Ù":{"ha":719,"x_min":3,"x_max":394,"o":"m 314 1078 l 394 1078 l 394 315 l 3 315 l 3 397 l 314 397 l 314 1078 l 314 1078 z "},"ı":{"ha":533,"x_min":0,"x_max":0,"o":""},"˜":{"ha":719,"x_min":146,"x_max":596,"o":"m 344 1078 l 397 1078 l 454 1021 l 483 1021 l 511 993 l 596 993 l 596 940 l 567 911 l 457 911 l 429 940 l 400 940 l 344 997 l 342 997 l 146 911 l 146 964 l 175 964 l 289 1021 l 344 1078 l 344 1078 z "},"ˆ":{"ha":719,"x_min":106,"x_max":583,"o":"m 190 1078 l 329 1078 l 413 993 l 446 993 l 529 1078 l 583 1078 l 583 997 l 556 968 l 556 940 l 526 940 l 499 911 l 360 911 l 276 997 l 243 997 l 160 911 l 106 911 l 106 993 l 133 1021 l 133 1050 l 163 1050 l 190 1078 l 190 1078 z "},"ˉ":{"ha":719,"x_min":-8,"x_max":697,"o":"m 78 624 l 131 624 l 131 594 l 160 567 l 160 511 l 188 482 l 188 454 l 243 397 l 243 368 l 356 311 l 385 269 l 356 231 l 329 231 l 243 144 l 217 144 l 131 60 l 131 32 l 74 -24 l 74 -53 l 21 -53 l 21 28 l 50 57 l 50 85 l 219 240 l 106 344 l 106 372 l 21 457 l 21 485 l -8 514 l -8 567 l 21 567 l 78 624 l 78 624 m 389 624 l 442 624 l 442 594 l 469 567 l 469 511 l 499 482 l 499 454 l 556 397 l 556 368 l 668 311 l 697 269 l 668 231 l 640 231 l 556 144 l 526 144 l 442 60 l 442 32 l 385 -24 l 385 -53 l 333 -53 l 333 28 l 360 57 l 360 85 l 529 240 l 417 344 l 417 372 l 333 457 l 333 485 l 304 514 l 304 567 l 333 567 l 389 624 l 389 624 z "},"˘":{"ha":533,"x_min":0,"x_max":0,"o":""},"˙":{"ha":533,"x_min":0,"x_max":0,"o":""},"˚":{"ha":533,"x_min":0,"x_max":0,"o":""},"¸":{"ha":719,"x_min":-8,"x_max":697,"o":"m 219 767 l 469 767 l 583 710 l 640 651 l 697 538 l 697 231 l 640 117 l 583 60 l 556 60 l 526 32 l 499 32 l 469 3 l 219 3 l 106 60 l 50 117 l -8 231 l -8 538 l 50 651 l 106 710 l 219 767 l 219 767 m 247 710 l 219 681 l 190 681 l 106 594 l 106 567 l 78 538 l 78 231 l 106 201 l 106 174 l 190 88 l 219 88 l 247 60 l 442 60 l 469 88 l 499 88 l 583 174 l 583 201 l 611 231 l 611 538 l 583 567 l 583 594 l 499 681 l 469 681 l 442 710 l 247 710 l 247 710 m 304 624 l 413 624 l 442 594 l 469 594 l 526 525 l 499 485 l 446 485 l 389 542 l 329 542 l 243 457 l 243 311 l 329 226 l 389 226 l 474 311 l 526 311 l 526 258 l 499 231 l 499 201 l 469 174 l 442 174 l 413 144 l 304 144 l 276 174 l 247 174 l 190 231 l 190 258 l 163 288 l 163 482 l 190 511 l 190 538 l 247 594 l 276 594 l 304 624 l 304 624 z "},"ʺ":{"ha":533,"x_min":0,"x_max":0,"o":""},"˛":{"ha":533,"x_min":0,"x_max":0,"o":""},"ˇ":{"ha":533,"x_min":0,"x_max":0,"o":""},"Ł":{"ha":533,"x_min":0,"x_max":0,"o":""},"ł":{"ha":533,"x_min":0,"x_max":0,"o":""},"Š":{"ha":533,"x_min":0,"x_max":0,"o":""},"š":{"ha":533,"x_min":0,"x_max":0,"o":""},"Ž":{"ha":533,"x_min":0,"x_max":0,"o":""},"ž":{"ha":533,"x_min":0,"x_max":0,"o":""},"¦":{"ha":533,"x_min":0,"x_max":0,"o":""},"Ð":{"ha":719,"x_min":35,"x_max":654,"o":"m 263 964 l 315 964 l 315 936 l 344 907 l 344 879 l 389 824 l 431 879 l 460 879 l 488 907 l 597 907 l 626 879 l 626 826 l 597 797 l 597 768 l 544 768 l 544 854 l 513 854 l 428 768 l 428 767 l 456 738 l 569 567 l 626 567 l 626 514 l 569 457 l 569 85 l 626 85 l 654 32 l 456 32 l 428 3 l 371 3 l 315 -53 l 263 -53 l 206 3 l 149 3 l 119 32 l 35 32 l 35 85 l 119 171 l 119 428 l 63 496 l 290 567 l 403 624 l 403 628 l 333 713 l 288 656 l 258 656 l 229 628 l 119 628 l 92 656 l 92 710 l 144 738 l 144 681 l 206 681 l 263 738 l 290 738 l 318 751 l 290 768 l 290 797 l 233 854 l 149 854 l 149 907 l 206 907 l 263 964 l 263 964 m 374 538 l 206 482 l 206 144 l 290 60 l 428 60 l 456 88 l 483 88 l 483 482 l 428 538 l 374 538 l 374 538 z "},"ð":{"ha":719,"x_min":133,"x_max":556,"o":"m 190 368 l 556 368 l 526 315 l 526 288 l 499 258 l 133 258 l 163 311 l 163 340 l 190 368 l 190 368 z "},"Ý":{"ha":533,"x_min":0,"x_max":0,"o":""},"ý":{"ha":533,"x_min":0,"x_max":0,"o":""},"Þ":{"ha":719,"x_min":78,"x_max":611,"o":"m 558 851 l 611 851 l 611 797 l 583 768 l 583 740 l 556 713 l 526 713 l 499 685 l 413 685 l 413 628 l 385 599 l 385 231 l 356 201 l 356 144 l 329 126 l 356 114 l 501 114 l 558 171 l 611 171 l 611 117 l 583 88 l 583 60 l 556 32 l 526 32 l 499 3 l 188 3 l 131 -53 l 78 -53 l 133 85 l 247 142 l 247 171 l 276 197 l 276 567 l 304 594 l 304 651 l 333 667 l 304 685 l 188 685 l 131 628 l 78 628 l 133 767 l 163 767 l 190 794 l 501 794 l 558 851 l 558 851 m 133 1078 l 243 1078 l 329 993 l 356 993 l 385 964 l 413 964 l 413 911 l 219 968 l 190 968 l 133 1025 l 133 1078 l 133 1078 z "},"þ":{"ha":719,"x_min":133,"x_max":556,"o":"m 133 624 l 556 624 l 556 201 l 133 201 l 133 624 l 133 624 z "},"−":{"ha":533,"x_min":0,"x_max":0,"o":""},"×":{"ha":533,"x_min":0,"x_max":0,"o":""},"¹":{"ha":533,"x_min":0,"x_max":0,"o":""},"²":{"ha":533,"x_min":0,"x_max":0,"o":""},"³":{"ha":533,"x_min":0,"x_max":0,"o":""},"½":{"ha":719,"x_min":78,"x_max":611,"o":"m 474 936 l 526 936 l 526 826 l 469 610 l 499 594 l 529 594 l 558 624 l 611 624 l 611 571 l 556 514 l 413 514 l 413 428 l 329 88 l 300 69 l 403 28 l 583 114 l 583 60 l 556 60 l 442 3 l 385 -53 l 333 -53 l 304 -24 l 300 -24 l 243 -194 l 190 -194 l 190 -114 l 219 -85 l 219 3 l 163 3 l 133 32 l 78 32 l 78 85 l 133 142 l 133 514 l 78 514 l 78 567 l 133 567 l 247 624 l 304 681 l 356 681 l 403 624 l 417 651 l 417 710 l 474 936 l 474 936 m 247 567 l 219 538 l 219 117 l 272 117 l 272 174 l 300 201 l 356 428 l 356 538 l 329 567 l 247 567 l 247 567 z "},"¼":{"ha":533,"x_min":0,"x_max":0,"o":""},"¾":{"ha":533,"x_min":0,"x_max":0,"o":""},"₣":{"ha":533,"x_min":0,"x_max":0,"o":""},"Ğ":{"ha":533,"x_min":0,"x_max":0,"o":""},"ğ":{"ha":533,"x_min":0,"x_max":0,"o":""},"İ":{"ha":533,"x_min":0,"x_max":0,"o":""},"Ş":{"ha":533,"x_min":0,"x_max":0,"o":""},"ş":{"ha":533,"x_min":0,"x_max":0,"o":""},"Ć":{"ha":533,"x_min":0,"x_max":0,"o":""},"ć":{"ha":533,"x_min":0,"x_max":0,"o":""},"Č":{"ha":533,"x_min":0,"x_max":0,"o":""},"č":{"ha":533,"x_min":0,"x_max":0,"o":""},"đ":{"ha":533,"x_min":0,"x_max":0,"o":""},"→":{"ha":694,"x_min":0,"x_max":0,"o":""},"⌂":{"ha":533,"x_min":0,"x_max":0,"o":""},"–":{"ha":719,"x_min":21,"x_max":668,"o":"m 133 681 l 188 681 l 243 567 l 243 85 l 300 85 l 346 28 l 501 197 l 501 485 l 446 542 l 360 542 l 360 594 l 417 594 l 474 651 l 474 681 l 526 681 l 583 567 l 583 114 l 640 57 l 668 57 l 668 3 l 640 3 l 574 -53 l 529 -24 l 529 32 l 501 60 l 501 88 l 488 117 l 329 -53 l 276 -53 l 247 -24 l 190 -24 l 163 3 l 78 3 l 78 57 l 163 142 l 163 485 l 106 542 l 21 542 l 21 594 l 78 594 l 133 651 l 133 681 l 133 681 m 333 964 l 385 964 l 469 879 l 499 879 l 526 851 l 583 851 l 583 797 l 556 768 l 446 768 l 417 797 l 389 797 l 333 854 l 329 854 l 133 768 l 133 824 l 163 824 l 190 851 l 219 851 l 333 964 l 333 964 z "},"­":{"ha":694,"x_min":0,"x_max":0,"o":""},"■":{"ha":694,"x_min":0,"x_max":0,"o":""},"•":{"ha":719,"x_min":61,"x_max":681,"o":"m 400 851 l 454 851 l 483 824 l 483 794 l 567 710 l 600 710 l 628 738 l 681 738 l 681 656 l 624 599 l 514 599 l 429 685 l 429 740 l 397 740 l 342 685 l 342 372 l 199 231 l 199 226 l 228 197 l 228 171 l 314 85 l 342 85 l 371 57 l 486 57 l 514 85 l 543 85 l 600 142 l 653 142 l 539 3 l 539 -24 l 483 -69 l 511 -85 l 511 -194 l 483 -224 l 483 -251 l 454 -281 l 426 -281 l 397 -308 l 232 -308 l 175 -251 l 175 -171 l 203 -142 l 256 -142 l 256 -197 l 314 -254 l 344 -254 l 429 -171 l 429 -167 l 400 -137 l 400 -110 l 344 -53 l 317 -53 l 203 3 l 146 60 l 89 174 l 89 231 l 61 258 l 61 538 l 89 567 l 89 624 l 146 738 l 232 824 l 285 824 l 228 740 l 228 713 l 199 685 l 199 656 l 171 628 l 171 311 l 189 283 l 260 368 l 260 599 l 232 639 l 400 824 l 400 851 l 400 851 z "},"¯":{"ha":533,"x_min":0,"x_max":0,"o":""},"°":{"ha":533,"x_min":0,"x_max":0,"o":""},"·":{"ha":533,"x_min":0,"x_max":0,"o":""},"‗":{"ha":533,"x_min":0,"x_max":0,"o":""},"‼":{"ha":533,"x_min":0,"x_max":0,"o":""},"ⁿ":{"ha":533,"x_min":0,"x_max":0,"o":""},"₧":{"ha":533,"x_min":0,"x_max":0,"o":""},"Γ":{"ha":533,"x_min":0,"x_max":0,"o":""},"Θ":{"ha":533,"x_min":0,"x_max":0,"o":""},"Φ":{"ha":533,"x_min":0,"x_max":0,"o":""},"α":{"ha":533,"x_min":0,"x_max":0,"o":""},"δ":{"ha":533,"x_min":0,"x_max":0,"o":""},"ε":{"ha":533,"x_min":0,"x_max":0,"o":""},"σ":{"ha":533,"x_min":0,"x_max":0,"o":""},"τ":{"ha":533,"x_min":0,"x_max":0,"o":""},"φ":{"ha":533,"x_min":0,"x_max":0,"o":""},"←":{"ha":533,"x_min":0,"x_max":0,"o":""},"↑":{"ha":533,"x_min":0,"x_max":0,"o":""},"↓":{"ha":533,"x_min":0,"x_max":0,"o":""},"↔":{"ha":533,"x_min":0,"x_max":0,"o":""},"↕":{"ha":533,"x_min":0,"x_max":0,"o":""},"↨":{"ha":533,"x_min":0,"x_max":0,"o":""},"∟":{"ha":533,"x_min":0,"x_max":0,"o":""},"∩":{"ha":533,"x_min":0,"x_max":0,"o":""},"≡":{"ha":533,"x_min":0,"x_max":0,"o":""},"⌐":{"ha":533,"x_min":0,"x_max":0,"o":""},"⌠":{"ha":533,"x_min":0,"x_max":0,"o":""},"⌡":{"ha":533,"x_min":0,"x_max":0,"o":""},"▬":{"ha":533,"x_min":0,"x_max":0,"o":""},"○":{"ha":533,"x_min":0,"x_max":0,"o":""},"▲":{"ha":533,"x_min":0,"x_max":0,"o":""},"►":{"ha":533,"x_min":0,"x_max":0,"o":""},"▼":{"ha":533,"x_min":0,"x_max":0,"o":""},"◄":{"ha":533,"x_min":0,"x_max":0,"o":""},"◘":{"ha":533,"x_min":0,"x_max":0,"o":""},"◙":{"ha":533,"x_min":0,"x_max":0,"o":""},"Ř":{"ha":533,"x_min":0,"x_max":0,"o":""},"▀":{"ha":533,"x_min":0,"x_max":0,"o":""},"▄":{"ha":533,"x_min":0,"x_max":0,"o":""},"█":{"ha":533,"x_min":0,"x_max":0,"o":""},"▌":{"ha":533,"x_min":0,"x_max":0,"o":""},"▐":{"ha":533,"x_min":0,"x_max":0,"o":""},"░":{"ha":533,"x_min":0,"x_max":0,"o":""},"▒":{"ha":533,"x_min":0,"x_max":0,"o":""},"▓":{"ha":533,"x_min":0,"x_max":0,"o":""},"☺":{"ha":533,"x_min":0,"x_max":0,"o":""},"☻":{"ha":533,"x_min":0,"x_max":0,"o":""},"☼":{"ha":533,"x_min":0,"x_max":0,"o":""},"♀":{"ha":533,"x_min":0,"x_max":0,"o":""},"♂":{"ha":533,"x_min":0,"x_max":0,"o":""},"♠":{"ha":533,"x_min":0,"x_max":0,"o":""},"♣":{"ha":533,"x_min":0,"x_max":0,"o":""},"♥":{"ha":533,"x_min":0,"x_max":0,"o":""},"♦":{"ha":533,"x_min":0,"x_max":0,"o":""},"♪":{"ha":533,"x_min":0,"x_max":0,"o":""},"♫":{"ha":533,"x_min":0,"x_max":0,"o":""},"Ă":{"ha":533,"x_min":0,"x_max":0,"o":""},"ă":{"ha":533,"x_min":0,"x_max":0,"o":""},"Ą":{"ha":533,"x_min":0,"x_max":0,"o":""},"ą":{"ha":533,"x_min":0,"x_max":0,"o":""},"Ď":{"ha":533,"x_min":0,"x_max":0,"o":""},"ď":{"ha":533,"x_min":0,"x_max":0,"o":""},"Đ":{"ha":533,"x_min":0,"x_max":0,"o":""},"Ę":{"ha":533,"x_min":0,"x_max":0,"o":""},"ę":{"ha":533,"x_min":0,"x_max":0,"o":""},"Ě":{"ha":533,"x_min":0,"x_max":0,"o":""},"ě":{"ha":533,"x_min":0,"x_max":0,"o":""},"Ĺ":{"ha":533,"x_min":0,"x_max":0,"o":""},"ĺ":{"ha":533,"x_min":0,"x_max":0,"o":""},"Ľ":{"ha":533,"x_min":0,"x_max":0,"o":""},"ľ":{"ha":533,"x_min":0,"x_max":0,"o":""},"Ń":{"ha":533,"x_min":0,"x_max":0,"o":""},"ń":{"ha":533,"x_min":0,"x_max":0,"o":""},"Ň":{"ha":533,"x_min":0,"x_max":0,"o":""},"ň":{"ha":533,"x_min":0,"x_max":0,"o":""},"Ő":{"ha":533,"x_min":0,"x_max":0,"o":""},"ő":{"ha":533,"x_min":0,"x_max":0,"o":""},"Ŕ":{"ha":533,"x_min":0,"x_max":0,"o":""},"ŕ":{"ha":533,"x_min":0,"x_max":0,"o":""},"ř":{"ha":533,"x_min":0,"x_max":0,"o":""},"Ś":{"ha":533,"x_min":0,"x_max":0,"o":""},"ś":{"ha":533,"x_min":0,"x_max":0,"o":""},"Ţ":{"ha":533,"x_min":0,"x_max":0,"o":""},"ţ":{"ha":533,"x_min":0,"x_max":0,"o":""},"Ť":{"ha":533,"x_min":0,"x_max":0,"o":""},"ť":{"ha":533,"x_min":0,"x_max":0,"o":""},"Ů":{"ha":533,"x_min":0,"x_max":0,"o":""},"ů":{"ha":533,"x_min":0,"x_max":0,"o":""},"ű":{"ha":533,"x_min":0,"x_max":0,"o":""},"Ű":{"ha":533,"x_min":0,"x_max":0,"o":""},"Ź":{"ha":533,"x_min":0,"x_max":0,"o":""},"ź":{"ha":533,"x_min":0,"x_max":0,"o":""},"Ż":{"ha":533,"x_min":0,"x_max":0,"o":""},"ż":{"ha":533,"x_min":0,"x_max":0,"o":""},"Ŀ":{"ha":533,"x_min":0,"x_max":0,"o":""},"ŀ":{"ha":533,"x_min":0,"x_max":0,"o":""},"─":{"ha":533,"x_min":0,"x_max":0,"o":""},"│":{"ha":533,"x_min":0,"x_max":0,"o":""},"┌":{"ha":533,"x_min":0,"x_max":0,"o":""},"┐":{"ha":533,"x_min":0,"x_max":0,"o":""},"└":{"ha":533,"x_min":0,"x_max":0,"o":""},"┘":{"ha":533,"x_min":0,"x_max":0,"o":""},"├":{"ha":533,"x_min":0,"x_max":0,"o":""},"┤":{"ha":533,"x_min":0,"x_max":0,"o":""},"┬":{"ha":533,"x_min":0,"x_max":0,"o":""},"┴":{"ha":533,"x_min":0,"x_max":0,"o":""},"┼":{"ha":533,"x_min":0,"x_max":0,"o":""},"═":{"ha":533,"x_min":0,"x_max":0,"o":""},"║":{"ha":533,"x_min":0,"x_max":0,"o":""},"╒":{"ha":533,"x_min":0,"x_max":0,"o":""},"╓":{"ha":533,"x_min":0,"x_max":0,"o":""},"╔":{"ha":533,"x_min":0,"x_max":0,"o":""},"╕":{"ha":533,"x_min":0,"x_max":0,"o":""},"╖":{"ha":533,"x_min":0,"x_max":0,"o":""},"╗":{"ha":533,"x_min":0,"x_max":0,"o":""},"╘":{"ha":533,"x_min":0,"x_max":0,"o":""},"╙":{"ha":533,"x_min":0,"x_max":0,"o":""},"╚":{"ha":533,"x_min":0,"x_max":0,"o":""},"╛":{"ha":533,"x_min":0,"x_max":0,"o":""},"╜":{"ha":533,"x_min":0,"x_max":0,"o":""},"╝":{"ha":533,"x_min":0,"x_max":0,"o":""},"╞":{"ha":533,"x_min":0,"x_max":0,"o":""},"╟":{"ha":533,"x_min":0,"x_max":0,"o":""},"╠":{"ha":533,"x_min":0,"x_max":0,"o":""},"╡":{"ha":533,"x_min":0,"x_max":0,"o":""},"╢":{"ha":533,"x_min":0,"x_max":0,"o":""},"╣":{"ha":533,"x_min":0,"x_max":0,"o":""},"╤":{"ha":533,"x_min":0,"x_max":0,"o":""},"╥":{"ha":533,"x_min":0,"x_max":0,"o":""},"╦":{"ha":533,"x_min":0,"x_max":0,"o":""},"╧":{"ha":533,"x_min":0,"x_max":0,"o":""},"╨":{"ha":533,"x_min":0,"x_max":0,"o":""},"╩":{"ha":533,"x_min":0,"x_max":0,"o":""},"╪":{"ha":533,"x_min":0,"x_max":0,"o":""},"╫":{"ha":533,"x_min":0,"x_max":0,"o":""},"╬":{"ha":533,"x_min":0,"x_max":0,"o":""}}}
